<?xml version="1.0" standalone="no"?>
<!DOCTYPE svg PUBLIC "-//W3C//DTD SVG 1.1//EN" "http://www.w3.org/Graphics/SVG/1.1/DTD/svg11.dtd" >
<svg>
<metadata>
Created by FontForge 20120731 at Tue Jun 12 19:00:32 2018
 By www
Copyright 1993 The Monotype Corporation. All rights reserved.
</metadata>
<defs>
<font id="AndaleMonoMTW04-Regular" horiz-adv-x="600" >
  <font-face 
    font-family="AndaleMonoMTW04-Regular"
    font-weight="400"
    font-stretch="normal"
    units-per-em="1000"
    panose-1="2 11 5 9 3 2 4 2 2 4"
    ascent="800"
    descent="-200"
    x-height="509"
    cap-height="689"
    bbox="-18 -218 662 931"
    underline-thickness="50"
    underline-position="-75"
    unicode-range="U+0020-FB02"
  />
<missing-glyph 
d="M62 665h475v-665h-475v665zM300 375l161 243h-323zM110 91l7 10t18 27t25.5 39t29.5 45q35 54 81 121l-161 242v-484zM328 333l162 -243v485zM300 290l-162 -242h323z" />
    <glyph glyph-name="uniFB01" unicode="fi" 
d="M482 0h-76v443h-198v-443h-76v443h-118v66h118v17q0 97 33 136t115 39q51 0 117 -20l-20 -62q-52 16 -97 16q-41 0 -56 -23q-16 -23 -16 -94v-9h274v-509z" />
    <glyph glyph-name="uniFB02" unicode="fl" 
d="M482 0h-76v621q-41 7 -70.5 10.5t-48.5 3.5q-45 0 -62 -26t-17 -91v-9h137v-66h-137v-443h-76v443h-118v66h118v17q0 94 36 135q34 40 119 40q11 0 25 -1t31 -3l64 -8h75v-689z" />
    <glyph glyph-name=".notdef" 
d="M62 665h475v-665h-475v665zM300 375l161 243h-323zM110 91l7 10t18 27t25.5 39t29.5 45q35 54 81 121l-161 242v-484zM328 333l162 -243v485zM300 290l-162 -242h323z" />
    <glyph glyph-name=".null" horiz-adv-x="0" 
 />
    <glyph glyph-name="nonmarkingreturn" 
 />
    <glyph glyph-name="space" unicode=" " 
 />
    <glyph glyph-name="exclam" unicode="!" 
d="M336 465l-23 -258h-42l-23 258v224h88v-224zM294 112q27 0 44 -17t17 -44q0 -26 -18 -45t-43 -19q-24 0 -42 19q-18 20 -18 45q0 26 18 44q17 17 42 17z" />
    <glyph glyph-name="quotedbl" unicode="&#x22;" 
d="M426 572l-18 -137h-39l-18 137v117h75v-117zM249 572l-18 -137h-39l-18 137v117h75v-117z" />
    <glyph glyph-name="numbersign" unicode="#" 
d="M560 194h-155l-41 -194h-69l41 194h-131l-41 -194h-69l41 194h-93v64h107l37 175h-144v64h157l41 192h69l-41 -192h131l41 192h69l-41 -192h91v-64h-104l-37 -175h141v-64zM387 433h-131l-37 -175h131z" />
    <glyph glyph-name="dollar" unicode="$" 
d="M333 395q92 -41 129 -88t37 -109q0 -76 -44 -131q-43 -53 -122 -73v-63h-57v56h-4q-88 0 -156 35l17 69q78 -36 137 -36h6v285q-105 45 -135 89q-30 43 -30 92q0 69 44 116q45 48 121 61v52h57v-48q67 0 132 -21l-18 -68q-60 21 -114 21v-239zM276 627q-87 -23 -87 -103
q0 -59 87 -102v205zM333 64q88 31 88 124q0 41 -21 70t-67 54v-248z" />
    <glyph glyph-name="percent" unicode="%" 
d="M161 702q66 0 102 -45t36 -118q0 -72 -36 -117q-37 -46 -102 -46q-64 0 -101 46q-37 44 -37 117q0 70 38 117q37 46 100 46zM161 435q68 0 68 104t-68 104t-68 -104t68 -104zM514 689l-364 -689h-68l364 689h68zM438 313q64 0 102 -45q36 -45 36 -118t-37 -117
q-37 -46 -101 -46t-101 46t-37 117q0 70 38 117q37 46 100 46zM438 46q68 0 68 104t-68 104t-68 -104t68 -104z" />
    <glyph glyph-name="ampersand" unicode="&#x26;" 
d="M599 4q-21 -9 -53 -9q-26 0 -51 19q-25 17 -66 71q-77 -98 -184 -98q-87 0 -146 55q-60 55 -60 136q0 52 32 99q16 23 44.5 50t71.5 56q-81 94 -81 166q0 67 45 111q45 42 114 42q66 0 106 -36q41 -36 41 -101q0 -47 -28 -88q-14 -22 -41 -46.5t-65 -53.5l144 -178
q17 43 29.5 72.5t20.5 46.5q17 34 46 57q28 24 76 24h4v-67h-4q-30 0 -57 -31q-27 -32 -72 -156q36 -44 57 -63q19 -19 46 -19q11 0 31 3v-62zM242 423q60 41 81 71q22 29 22 65q0 38 -23 58q-22 19 -56 19q-37 0 -63 -23t-26 -64q0 -52 65 -126zM224 337q-56 -41 -81 -77
q-24 -36 -24 -79q0 -54 38 -90q37 -37 90 -37q82 0 141 81z" />
    <glyph glyph-name="quotesingle" unicode="'" 
d="M338 572l-18 -137h-39l-18 137v117h75v-117z" />
    <glyph glyph-name="parenleft" unicode="(" 
d="M438 -144q-109 82 -166 192q-57 109 -57 231q0 121 57 231q28 55 69.5 102t96.5 89l30 -42q-90 -79 -129 -167q-39 -89 -39 -212q0 -128 41 -216q40 -88 127 -166z" />
    <glyph glyph-name="parenright" unicode=")" 
d="M162 701q110 -83 166 -191q57 -110 57 -231q0 -122 -57 -231q-57 -110 -166 -192l-30 42q88 79 129 168q39 88 39 214q0 129 -40 215q-41 86 -128 164z" />
    <glyph glyph-name="asterisk" unicode="*" 
d="M472 419l-29 -49l-116 77v-140h-54v140l-117 -78l-29 50l123 80l-123 80l29 49l117 -78v139h54v-138l116 77l29 -49l-121 -80z" />
    <glyph glyph-name="plus" unicode="+" 
d="M531 321h-198v-200h-64v200h-200v64h200v200h64v-200h198v-64z" />
    <glyph glyph-name="comma" unicode="," 
d="M301 -13q-26 3 -42 21q-17 19 -17 41q0 26 16 42q17 17 41 17q28 0 47 -22q20 -23 20 -54q0 -95 -106 -149l-19 35q60 28 60 69z" />
    <glyph glyph-name="hyphen" unicode="-" 
d="M440 238h-290v74h290v-74z" />
    <glyph glyph-name="period" unicode="." 
d="M297 112q27 0 44 -17t17 -44t-18 -45q-18 -19 -43 -19q-24 0 -42 19q-18 20 -18 45t17 44q17 17 43 17z" />
    <glyph glyph-name="slash" unicode="/" 
d="M476 702l-299 -715h-72l298 715h73z" />
    <glyph glyph-name="zero" unicode="0" 
d="M299 702q110 0 168 -94q59 -95 59 -264q0 -164 -57 -260q-57 -97 -170 -97q-110 0 -168 94q-59 94 -59 263q0 165 58 262q57 96 169 96zM299 57q72 0 107 69q35 68 35 218q0 151 -35 219t-107 68t-106 -70q-36 -71 -36 -217q0 -148 35 -218q34 -69 107 -69z" />
    <glyph glyph-name="one" unicode="1" 
d="M497 0h-362v70h146v535l-138 -69v80l149 77h69v-623h136v-70z" />
    <glyph glyph-name="two" unicode="2" 
d="M479 0h-379v58q72 81 118.5 134.5t68.5 81.5q42 53 70 114q27 60 27 120q0 56 -35 91q-35 33 -98 33q-48 0 -130 -30l-11 69q72 31 154 31q93 0 149 -52q56 -53 56 -139q0 -60 -29 -123q-28 -60 -74 -117q-47 -56 -177 -201h290v-70z" />
    <glyph glyph-name="three" unicode="3" 
d="M343 370q63 -16 101 -64q38 -47 38 -105q0 -90 -71 -152t-167 -62q-83 0 -147 36l16 66q69 -32 134 -32q63 0 107 39t44 100q0 60 -47 98q-47 37 -126 37h-21v66h6q74 0 124 36q49 34 49 95q0 48 -35 77q-35 27 -97 27q-52 0 -119 -29l-11 69q67 30 134 30q92 0 152 -48
q60 -50 60 -125q0 -53 -36 -98q-37 -46 -88 -58v-3z" />
    <glyph glyph-name="four" unicode="4" 
d="M524 159h-85v-159h-80v159h-300v61l272 469h108v-460h85v-70zM359 229v381l-219 -381h219z" />
    <glyph glyph-name="five" unicode="5" 
d="M212 411q33 9 65 9q98 0 155 -60q56 -61 56 -149q0 -95 -66 -159q-67 -65 -161 -65q-90 0 -151 30l16 68q65 -28 137 -28q63 0 102 41q39 40 39 113q0 68 -36 106q-37 37 -95 37q-44 0 -83 -16l-48 22v329h315v-70h-245v-208z" />
    <glyph glyph-name="six" unicode="6" 
d="M177 359q64 52 140 52q87 0 146 -56q58 -55 58 -144q0 -98 -52 -160q-52 -64 -138 -64q-109 0 -174 101t-65 248q0 157 67 261q67 105 184 105q80 0 139 -24l-13 -71q-66 25 -124 25q-80 0 -123 -76q-45 -77 -45 -197zM179 290q0 -45 11 -84.5t31 -75.5q42 -73 104 -73
q53 0 82 39q29 40 29 108q0 64 -31 101q-32 36 -90 36q-75 0 -136 -51z" />
    <glyph glyph-name="seven" unicode="7" 
d="M506 632l-273 -632h-82l269 619h-323v70h409v-57z" />
    <glyph glyph-name="eight" unicode="8" 
d="M369 378q70 -21 109 -70q39 -50 39 -115q0 -94 -62 -150q-64 -56 -155 -56q-96 0 -158 56t-62 149q0 66 40 115q41 50 112 71q-56 15 -91 57q-35 41 -35 93q0 65 53 120q52 54 139 54q85 0 141 -53q56 -54 56 -121q0 -49 -35 -92q-34 -43 -91 -58zM298 411q2 0 23 6
t36 15q14 7 28 21q13 15 20 31q8 19 8 40q0 46 -33 78q-34 31 -82 31q-46 0 -80 -32q-33 -32 -33 -77q0 -29 12 -50q11 -21 30 -35q9 -7 19.5 -11.5t21.5 -8.5q24 -8 30 -8zM298 343q-134 -39 -134 -147q0 -63 41 -101t95 -38q55 0 95 38q39 37 39 101q0 48 -27 87
q-27 38 -109 60z" />
    <glyph glyph-name="nine" unicode="9" 
d="M431 331q-58 -52 -140 -52q-86 0 -145 56t-59 144q0 95 56 160q55 64 144 64q109 0 169 -98q60 -97 60 -251q0 -152 -71 -259t-190 -107q-81 0 -139 24l13 71q66 -25 124 -25q81 0 130 79q48 78 48 194zM429 400q0 93 -37 163t-99 70q-55 0 -88 -41t-33 -106
q0 -59 34 -98t87 -39q75 0 130 46z" />
    <glyph glyph-name="colon" unicode=":" 
d="M296 516q25 0 42 -17t17 -41t-17 -41t-42 -17q-24 0 -41 17t-17 41t17 41t41 17zM296 108q26 0 42 -16q17 -17 17 -42q0 -24 -17 -41t-42 -17q-24 0 -41 17t-17 41q0 25 17 42q16 16 41 16z" />
    <glyph glyph-name="semicolon" unicode=";" 
d="M300 516q25 0 42 -17t17 -41t-17 -41t-42 -17q-24 0 -41 17t-17 41t17 41t41 17zM301 -13q-26 3 -42 21q-17 19 -17 41q0 26 16 42q17 17 41 17q28 0 47 -22q20 -23 20 -54q0 -95 -106 -149l-19 35q60 28 60 69z" />
    <glyph glyph-name="less" unicode="&#x3c;" 
d="M476 105l-365 219v59l365 217v-70l-293 -179l293 -174v-72z" />
    <glyph glyph-name="equal" unicode="=" 
d="M531 419h-462v64h462v-64zM531 223h-462v64h462v-64z" />
    <glyph glyph-name="greater" unicode="&#x3e;" 
d="M495 324l-365 -219v72l293 174l-293 179v70l365 -217v-59z" />
    <glyph glyph-name="question" unicode="?" 
d="M117 663q87 39 155 39q93 0 143 -41t50 -123q0 -84 -109 -174q-48 -40 -57 -52q-12 -15 -17 -31q-7 -18 -7 -47v-27h-67v28q0 85 54 132l65 57q15 14 26.5 26.5t19.5 26.5q14 28 14 58q0 51 -32 78t-88 27q-51 0 -127 -36zM250 112q27 0 44 -17t17 -44t-18 -45
q-18 -19 -43 -19q-24 0 -42 19q-18 20 -18 45q0 26 18 44q17 17 42 17z" />
    <glyph glyph-name="at" unicode="@" 
d="M473 -38q-74 -41 -159 -41q-119 0 -192 97q-74 97 -74 259q0 197 73 309t191 112q109 0 178 -89t69 -240q0 -113 -45 -186q-45 -74 -117 -74q-50 0 -63 58q-28 -58 -79 -58q-37 0 -62 39q-25 38 -25 102q0 99 42 165t105 66q24 0 50 -18l2 12h61q-14 -132 -21.5 -202
t-7.5 -80q0 -13 6 -22q4 -9 14 -9q33 0 60 59q27 58 27 148q0 128 -53 204q-53 75 -141 75q-95 0 -153 -99q-58 -98 -58 -272q0 -139 59 -222t154 -83q80 0 148 34zM358 410q-15 18 -40 18q-40 0 -64 -47t-24 -124q0 -45 12 -70t31 -25q28 0 46 27q17 26 19 38z" />
    <glyph glyph-name="A" unicode="A" 
d="M574 0h-84l-76 241h-226l-77 -241h-83l225 689h96zM391 311l-90 285l-90 -285h180z" />
    <glyph glyph-name="B" unicode="B" 
d="M383 378q70 -17 108 -62q39 -47 39 -111q0 -93 -68 -149t-164 -56h-196v689h191q101 0 156 -43q56 -44 56 -124q0 -49 -32 -87q-34 -39 -90 -55v-2zM182 415h94q147 0 147 105q0 48 -36 74q-35 25 -106 25h-99v-204zM182 70h91q80 0 127 36q46 36 46 99q0 67 -46 104
q-47 36 -133 36h-85v-275z" />
    <glyph glyph-name="C" unicode="C" 
d="M523 43q-82 -56 -188 -56q-134 0 -203 92q-70 91 -70 265q0 168 68 263t205 95q25 0 49.5 -2.5t49.5 -9.5q46 -11 78 -34l-26 -63q-69 39 -151 39q-95 0 -141 -69q-47 -70 -47 -219q0 -287 188 -287q81 0 163 49z" />
    <glyph glyph-name="D" unicode="D" 
d="M102 689h136q134 0 217 -92q81 -92 81 -253q0 -165 -82 -254q-83 -90 -213 -90h-139v689zM182 70h57q98 0 155 73q57 72 57 201q0 128 -57 202q-58 73 -155 73h-57v-549z" />
    <glyph glyph-name="E" unicode="E" 
d="M485 0h-360v689h357v-70h-277v-213h266v-70h-266v-266h280v-70z" />
    <glyph glyph-name="F" unicode="F" 
d="M490 619h-285v-225h260v-70h-260v-324h-80v689h365v-70z" />
    <glyph glyph-name="G" unicode="G" 
d="M522 49q-85 -62 -187 -62q-134 0 -203 91q-70 91 -70 266q0 170 67 264t206 94q25 0 49.5 -2.5t49.5 -9.5q46 -11 78 -34l-26 -63q-69 39 -151 39q-95 0 -141 -69q-47 -71 -47 -219q0 -287 188 -287q71 0 107 30v170h-124v69h204v-277z" />
    <glyph glyph-name="H" unicode="H" 
d="M498 0h-80v342h-236v-342h-80v689h80v-277h236v277h80v-689z" />
    <glyph glyph-name="I" unicode="I" 
d="M453 0h-313v70h119v549h-119v70h313v-70h-114v-549h114v-70z" />
    <glyph glyph-name="J" unicode="J" 
d="M423 183q0 -96 -49 -145q-50 -51 -146 -51q-82 0 -152 35l24 64q60 -29 128 -29q61 0 88 32q27 31 27 100v500h80v-506z" />
    <glyph glyph-name="K" unicode="K" 
d="M589 0h-101l-233 338l-73 -79v-259h-80v689h80v-330l306 330h92l-269 -291z" />
    <glyph glyph-name="L" unicode="L" 
d="M500 0h-375v689h80v-619h295v-70z" />
    <glyph glyph-name="M" unicode="M" 
d="M522 0h-77v591l-104 -283h-76l-104 283v-591h-77v689h104l115 -314l115 314h104v-689z" />
    <glyph glyph-name="N" unicode="N" 
d="M508 0h-89l-247 544v-544h-80v689h89l248 -539v539h79v-689z" />
    <glyph glyph-name="O" unicode="O" 
d="M299 702q116 0 177 -91q60 -92 60 -267q0 -174 -60 -265q-62 -92 -177 -92q-114 0 -176 92q-61 91 -61 265q0 176 61 267q60 91 176 91zM299 57q152 0 152 287q0 288 -152 288q-74 0 -113 -74q-39 -75 -39 -214q0 -140 39 -213q38 -74 113 -74z" />
    <glyph glyph-name="P" unicode="P" 
d="M125 689h175q98 0 159 -50q59 -50 59 -137t-59 -140q-61 -53 -156 -53h-98v-309h-80v689zM205 379h87q141 0 141 118q0 56 -38 89q-37 33 -99 33h-91v-240z" />
    <glyph glyph-name="Q" unicode="Q" 
d="M554 -114q-40 -13 -84 -13q-108 0 -139 117q-20 -3 -32 -3q-114 0 -176 92q-61 91 -61 265q0 176 61 267q60 91 176 91t177 -91q60 -92 60 -267q0 -254 -127 -330q18 -71 69 -71q30 0 62 7zM299 57q152 0 152 287q0 288 -152 288q-74 0 -113 -74q-39 -75 -39 -214
q0 -140 39 -213q38 -74 113 -74z" />
    <glyph glyph-name="R" unicode="R" 
d="M573 0h-100l-202 313h-89v-313h-80v689h195q97 0 155 -47q57 -48 57 -133q0 -62 -41 -112q-42 -49 -115 -67zM182 383h101q63 0 104 35q39 34 39 86q0 115 -141 115h-103v-236z" />
    <glyph glyph-name="S" unicode="S" 
d="M447 613q-62 21 -117 21q-63 0 -101 -28q-40 -28 -40 -82q0 -64 103 -110q38 -17 63 -29t38 -19q24 -13 50 -38q26 -24 41 -56q8 -17 11.5 -35.5t3.5 -38.5q0 -100 -67 -155q-68 -56 -160 -56q-88 0 -156 35l17 69q78 -36 137 -36q68 0 110 36q41 35 41 97q0 46 -27 78
q-28 32 -99 65q-37 17 -61 28.5t-35 18.5q-22 12 -43 34q-21 21 -33 50q-5 14 -8.5 28.5t-3.5 30.5q0 85 62 133q61 48 155 48q69 0 137 -21z" />
    <glyph glyph-name="T" unicode="T" 
d="M553 624h-212v-624h-80v624h-213v65h505v-65z" />
    <glyph glyph-name="U" unicode="U" 
d="M498 217q0 -120 -48 -175q-49 -55 -148 -55q-200 0 -200 228v474h80v-467q0 -165 120 -165q59 0 88 39q28 38 28 127v466h80v-472z" />
    <glyph glyph-name="V" unicode="V" 
d="M572 689l-225 -689h-96l-225 689h84l189 -596l190 596h83z" />
    <glyph glyph-name="W" unicode="W" 
d="M579 689l-88 -689h-74l-117 388l-117 -388h-76l-86 689h79l58 -560l102 339h80l102 -340l59 561h78z" />
    <glyph glyph-name="X" unicode="X" 
d="M568 0h-89l-175 282l-173 -282h-89l220 351l-219 338h92l169 -273l171 273h88l-216 -338z" />
    <glyph glyph-name="Y" unicode="Y" 
d="M556 689l-215 -394v-295h-80v295l-215 394h90l165 -310l165 310h90z" />
    <glyph glyph-name="Z" unicode="Z" 
d="M508 632l-328 -562h322v-70h-413v56l326 563h-312v70h405v-57z" />
    <glyph glyph-name="bracketleft" unicode="[" 
d="M445 -132h-190v821h190v-67h-114v-688h114v-66z" />
    <glyph glyph-name="backslash" unicode="\" 
d="M475 -13h-72l-299 715h73z" />
    <glyph glyph-name="bracketright" unicode="]" 
d="M331 -130h-195v66h119v687h-119v66h195v-819z" />
    <glyph glyph-name="asciicircum" unicode="^" 
d="M549 385h-70l-179 293l-174 -293h-72l219 365h59z" />
    <glyph glyph-name="underscore" unicode="_" 
d="M604 -218h-610v64h610v-64z" />
    <glyph glyph-name="grave" unicode="`" 
d="M377 569h-55l-152 147h110z" />
    <glyph glyph-name="a" unicode="a" 
d="M434 0q-9 31 -9 82q-65 -95 -177 -95q-57 0 -100 40t-43 104q0 37 15 66q16 30 45 49q29 20 71 32q42 10 99 15l86 7v24q0 131 -122 131q-30 0 -73 -12q-46 -14 -76 -30l-20 55q104 53 193 53q174 0 174 -184v-219q0 -67 13 -118h-76zM421 243q-52 -5 -87 -9t-54 -8
q-38 -7 -67 -30q-28 -22 -28 -60q0 -34 24 -55t61 -21q40 0 81 24q40 24 70 67v92z" />
    <glyph glyph-name="b" unicode="b" 
d="M181 443q25 34 69 57q43 21 91 21q89 0 139 -71q49 -71 49 -188q0 -116 -53 -196q-52 -79 -141 -79q-23 0 -45.5 6.5t-42.5 17.5q-43 25 -66 62v-73h-76v689h76v-246zM181 156q23 -45 59 -72q37 -29 75 -29q60 0 98 59q36 58 36 144q0 88 -34 143q-35 54 -97 54
q-82 0 -137 -88v-211z" />
    <glyph glyph-name="c" unicode="c" 
d="M495 17q-66 -30 -146 -30q-121 0 -191 73q-72 73 -72 194q0 120 72 194q72 73 189 73q77 0 146 -27l-20 -63q-69 24 -125 24q-84 0 -133 -54q-49 -53 -49 -147q0 -85 51 -143t132 -58q67 0 133 25z" />
    <glyph glyph-name="d" unicode="d" 
d="M495 0h-76v73q-22 -36 -67 -61q-43 -25 -92 -25q-89 0 -138 78q-51 78 -51 197q0 112 53 186q52 73 140 73q96 0 155 -78v246h76v-689zM419 367q-55 88 -132 88q-63 0 -99 -56q-37 -55 -37 -141q0 -87 35 -145q34 -58 94 -58q30 0 58 16q30 16 55 47q26 32 26 38v211z
" />
    <glyph glyph-name="e" unicode="e" 
d="M512 252h-349q0 -86 50 -142q49 -57 123 -57q71 0 143 25l13 -61q-68 -30 -157 -30q-112 0 -182 73t-70 196q0 121 63 193q61 72 160 72q89 0 147 -67q59 -68 59 -178v-24zM429 314q0 61 -37 101t-83 40q-59 0 -98 -39q-38 -38 -43 -102h261z" />
    <glyph glyph-name="f" unicode="f" 
d="M482 619q-52 16 -97 16q-41 0 -56 -23q-16 -23 -16 -94v-9h171v-66h-171v-443h-76v443h-128v66h128v17q0 97 33 136t115 39q51 0 117 -20z" />
    <glyph glyph-name="g" unicode="g" 
d="M246 192q-71 -35 -71 -61q0 -13 17 -24q18 -11 44 -10l171 5q59 1 95 -30q34 -30 34 -84q0 -87 -77 -138t-180 -51q-85 0 -138 35q-54 36 -54 92q0 61 83 103q-69 31 -69 79q0 53 89 100q-41 26 -63 65q-22 38 -22 83q0 72 49 118t122 46q54 0 95 -22l151 23v-74h-97
q22 -38 22 -91q0 -69 -48 -117q-50 -48 -123 -48h-15.5t-14.5 1zM276 250q42 0 69 29q26 29 26 76q0 48 -26 77q-25 28 -69 28q-41 0 -68 -29q-28 -28 -28 -76q0 -45 28 -75t68 -30zM279 -142q75 0 128 33q53 35 53 83q0 51 -75 51q-25 0 -86 -3q-20 -1 -35 -1.5t-26 -0.5
q-10 0 -33 -17q-24 -19 -35 -36q-12 -18 -12 -37q0 -30 34 -51q33 -21 87 -21z" />
    <glyph glyph-name="h" unicode="h" 
d="M497 0h-76v326q0 68 -22 99q-23 30 -68 30q-71 0 -150 -87v-368h-76v689h76v-255q82 87 173 87q143 0 143 -173v-348z" />
    <glyph glyph-name="i" unicode="i" 
d="M370 0h-76v443h-150v66h226v-509zM281 648q0 22 15 37.5t37 15.5t37.5 -15.5t15.5 -37.5t-15.5 -37t-37.5 -15t-37 15t-15 37z" />
    <glyph glyph-name="j" unicode="j" 
d="M370 -26q0 -96 -33 -136q-33 -39 -115 -39q-51 0 -117 20l20 62q52 -16 97 -16q42 0 57 23q15 22 15 94v461h-150v66h226v-535zM281 648q0 22 15 37.5t37 15.5t37.5 -15.5t15.5 -37.5t-15.5 -37t-37.5 -15t-37 15t-15 37z" />
    <glyph glyph-name="k" unicode="k" 
d="M547 0h-100l-216 253l-50 -43v-210h-76v689h76v-395l239 215h97l-232 -208z" />
    <glyph glyph-name="l" unicode="l" 
d="M460 0h-208v623h-133v66h209v-623h132v-66z" />
    <glyph glyph-name="m" unicode="m" 
d="M537 0h-76v334q0 121 -45 121q-23 0 -50 -41q-28 -41 -28 -47v-367h-76v334q0 121 -45 121q-23 0 -50 -41q-28 -41 -28 -47v-367h-76v509h73v-77q23 42 52 65q28 24 58 24t56 -24q24 -24 33 -65q21 41 51 65t59 24q92 0 92 -165v-356z" />
    <glyph glyph-name="n" unicode="n" 
d="M497 0h-76v326q0 68 -22 99q-23 30 -68 30q-71 0 -150 -87v-368h-76v509h76v-75q82 87 173 87q143 0 143 -173v-348z" />
    <glyph glyph-name="o" unicode="o" 
d="M300 521q106 0 167 -73q62 -74 62 -193q0 -120 -62 -194t-167 -74t-167 74t-62 194q0 119 62 193q61 73 167 73zM300 53q68 0 109 59q40 58 40 142q0 90 -39 145q-39 56 -110 56t-110 -56t-39 -145q0 -85 40 -143q39 -58 109 -58z" />
    <glyph glyph-name="p" unicode="p" 
d="M181 443q25 34 69 57q43 21 91 21q88 0 138 -72q50 -74 50 -189q0 -118 -52 -195q-53 -78 -142 -78q-23 0 -45.5 6.5t-42.5 17.5q-43 25 -66 62v-274h-76v710h76v-66zM181 156q23 -45 59 -72q37 -29 75 -29q61 0 98 58q36 57 36 143q0 89 -34 144t-97 55q-82 0 -137 -88
v-211z" />
    <glyph glyph-name="q" unicode="q" 
d="M495 -201h-76v274q-22 -36 -67 -61q-43 -25 -92 -25q-88 0 -138 77q-51 76 -51 195q0 114 53 188t140 74q96 0 155 -78v66h76v-710zM419 367q-55 88 -132 88q-63 0 -99 -57q-37 -56 -37 -143q0 -88 35 -144t94 -56q30 0 58 16q30 16 55 47q26 32 26 38v211z" />
    <glyph glyph-name="r" unicode="r" 
d="M474 422q-48 22 -87 22q-34 0 -65 -19q-32 -19 -60 -56q-27 -36 -27 -40v-329h-76v509h76v-103q61 115 158 115q57 0 112 -26z" />
    <glyph glyph-name="s" unicode="s" 
d="M444 436q-65 21 -121 21q-61 0 -98 -20q-36 -21 -36 -56q0 -21 17 -38q18 -18 66 -31l73 -21q25 -7 45.5 -15.5t36.5 -18.5q30 -19 47 -48q16 -28 16 -65q0 -73 -61 -115q-62 -42 -155 -42q-95 0 -155 28l15 66q64 -30 137 -30q62 0 103 24q40 22 40 62q0 28 -19 48
q-21 20 -94 43q-29 9 -50.5 15.5t-35.5 11.5q-28 9 -52 27q-22 15 -36 42q-13 26 -13 54q0 66 58 105q58 38 152 38q62 0 137 -21z" />
    <glyph glyph-name="t" unicode="t" 
d="M502 23q-78 -35 -151 -35q-136 0 -136 144v311h-98v66h98v139h74v-139h173v-66h-173v-291q0 -47 21 -72q20 -26 55 -26q64 0 124 28z" />
    <glyph glyph-name="u" unicode="u" 
d="M496 0h-76v75q-83 -87 -173 -87q-143 0 -143 173v348h76v-326q0 -66 21 -97q20 -32 69 -32q70 0 150 87v368h76v-509z" />
    <glyph glyph-name="v" unicode="v" 
d="M520 509l-193 -509h-69l-192 509h83l144 -405l144 405h83z" />
    <glyph glyph-name="w" unicode="w" 
d="M557 509l-73 -509h-58l-120 288l-120 -288h-58l-72 509h76q40 -355 42 -374l93 221h78l93 -220l41 373h78z" />
    <glyph glyph-name="x" unicode="x" 
d="M515 0h-86l-136 199l-141 -199h-81l181 255l-181 254h87l137 -198l139 198h81l-180 -251z" />
    <glyph glyph-name="y" unicode="y" 
d="M520 509l-193 -509q-41 -111 -83 -157q-41 -44 -94 -44q-45 0 -93 17l13 61q37 -12 66 -12q41 0 68 32q26 32 53 104l-191 508h83l144 -406l144 406h83z" />
    <glyph glyph-name="z" unicode="z" 
d="M490 0h-391v41l290 401h-283v67h384v-38l-290 -404h290v-67z" />
    <glyph glyph-name="braceleft" unicode="{" 
d="M447 -167h-39q-69 0 -101 38q-31 37 -31 140v47q0 91 -24 127t-77 36v80q53 0 77 36t24 127v47q0 103 31 140q32 38 101 38h39v-64h-15q-45 0 -63 -19q-18 -20 -18 -94v-31q0 -100 -23 -149q-24 -48 -80 -71q56 -23 80 -71q23 -49 23 -149v-31q0 -75 18 -94t63 -19h15
v-64z" />
    <glyph glyph-name="bar" unicode="|" 
d="M335 -187h-75v876h75v-876z" />
    <glyph glyph-name="braceright" unicode="}" 
d="M423 221q-53 0 -77 -36t-24 -127v-47q0 -103 -31 -140q-32 -38 -101 -38h-39v64h15q45 0 63 19t18 94v31q0 101 24 149q23 48 79 71q-56 23 -79 71q-24 48 -24 149v31q0 74 -18 94q-18 19 -63 19h-15v64h39q69 0 101 -38q31 -37 31 -140v-47q0 -83 22 -123q21 -40 79 -40
v-80z" />
    <glyph glyph-name="asciitilde" unicode="~" 
d="M564 250q-76 -64 -146 -64q-40 0 -125 38q-87 38 -122 38q-57 0 -142 -67v70q76 64 149 64q41 0 126 -38t120 -38q58 0 140 67v-70z" />
    <glyph glyph-name="uni00A0" unicode="&#xa0;" 
 />
    <glyph glyph-name="exclamdown" unicode="&#xa1;" 
d="M304 521q25 0 43 -19q17 -20 17 -45q0 -26 -17 -43q-17 -18 -43 -18q-25 0 -43 18t-18 43t18 45q18 19 43 19zM350 -181h-88v224l23 258h42l23 -258v-224z" />
    <glyph glyph-name="cent" unicode="&#xa2;" 
d="M505 17q-61 -28 -136 -30v-88h-57v91q-103 15 -159 86q-57 70 -57 178q0 106 57 177q57 70 159 87v91h57v-88q69 -1 134 -27l-20 -63q-60 21 -114 24v-402q63 3 123 25zM312 450q-66 -14 -100 -66q-36 -53 -36 -130q0 -69 37 -124q38 -56 99 -72v392z" />
    <glyph glyph-name="sterling" unicode="&#xa3;" 
d="M543 38q-56 -48 -126 -48q-39 0 -100 30q-56 27 -88 27q-62 0 -126 -52v77q55 42 64 73q8 32 8 57v106h-96v65h96v83q0 125 47 186q47 59 145 59q70 0 130 -26l-18 -65q-56 21 -111 21q-59 0 -86 -42t-27 -134v-82h123v-65h-123v-97q0 -57 -30 -88q47 0 110 -31
q57 -26 87 -26q59 0 121 54v-82z" />
    <glyph glyph-name="currency" unicode="&#xa4;" 
d="M526 174q-11 -11 -21 -21.5t-21 -21.5q-17 17 -33.5 33t-33.5 33q-25 -18 -55 -28t-62 -10q-26 0 -57 8t-60 30q-17 -17 -33.5 -33t-33.5 -33q-11 11 -21 21.5t-21 21.5l34 32t34 33q-18 25 -28.5 54t-10.5 61q0 65 39 115q-17 17 -34 33t-34 33q11 11 21 21.5t21 21.5
q17 -17 33.5 -33t33.5 -33q30 21 60.5 29.5t56.5 8.5q28 0 59.5 -9t56.5 -29q17 17 34 33t34 33q11 -11 21 -21.5t21 -21.5q-17 -17 -34 -33t-34 -33q20 -27 29 -57t9 -58q0 -62 -38 -115q17 -17 34 -33zM436 355q0 30 -11.5 55t-30.5 42.5t-43.5 27.5t-49.5 10
q-30 0 -55 -11t-43.5 -29.5t-29 -43t-10.5 -51.5q0 -28 11 -53t29.5 -43.5t43.5 -29.5t53 -11t53 11t43.5 29.5t29 43.5t10.5 53z" />
    <glyph glyph-name="yen" unicode="&#xa5;" 
d="M556 689l-190 -350h166v-64h-191v-70h191v-64h-191v-143h-80v143h-191v64h191v70h-191v64h166l-190 350h90l165 -312l165 312h90z" />
    <glyph glyph-name="brokenbar" unicode="&#xa6;" 
d="M260 318v371h75v-371h-75zM260 -201v371h75v-371h-75z" />
    <glyph glyph-name="section" unicode="&#xa7;" 
d="M449 616q-61 19 -118 19q-64 0 -102 -23q-38 -24 -38 -69q0 -62 103 -99q40 -14 66.5 -24.5t39.5 -17.5t25.5 -15.5t25.5 -19.5q24 -22 37 -50q13 -27 13 -65q0 -90 -81 -145q63 -56 63 -126q0 -85 -65 -138q-65 -51 -160 -51q-85 0 -158 36l16 66q72 -34 138 -34
q69 0 110 29q40 30 40 83q0 46 -28 75q-27 29 -95 55q-38 14 -62 24t-35 15t-22.5 13t-22.5 18q-22 19 -34 45q-12 25 -12 56q0 44 27 82q25 35 76 57q-85 48 -85 128q0 75 61 118q61 44 157 44q74 0 138 -19zM362 151q61 30 61 92q0 18 -5 36q-4 15 -17 31q-13 17 -34 29
q-21 13 -55 25q-33 12 -36 12q-35 0 -69 -28q-36 -29 -36 -74q0 -26 24 -48q24 -23 70 -39q23 -9 47 -18t50 -18z" />
    <glyph glyph-name="dieresis" unicode="&#xa8;" 
d="M397 679q22 0 37 -15q14 -16 14 -38q0 -21 -15 -37t-36 -16q-22 0 -37 16q-16 16 -16 37q0 23 16 38q15 15 37 15zM204 679q23 0 38 -15q14 -16 14 -38t-15 -37q-15 -16 -37 -16q-21 0 -37 16t-16 37q0 23 16 38q15 15 37 15z" />
    <glyph glyph-name="copyright" unicode="&#xa9;" 
d="M300 702q123 0 209 -86t86 -208q0 -121 -86 -209q-87 -87 -209 -87q-123 0 -208 87q-87 87 -87 209t86 208t209 86zM300 166q99 0 172 71q71 71 71 171t-71 171q-73 71 -172 71q-100 0 -171 -71t-71 -171t71 -171t171 -71zM402 282q-45 -33 -94 -33q-64 0 -101 45
q-38 46 -38 115q0 75 37 118t102 43q44 0 88 -24l-17 -46q-33 18 -71 18q-40 0 -58 -25q-19 -25 -19 -84q0 -108 77 -108q35 0 78 26z" />
    <glyph glyph-name="ordfeminine" unicode="&#xaa;" 
d="M362 389q-4 17 -4 40q-17 -20 -47 -34t-54 -14q-39 0 -65 26q-27 25 -27 67q0 92 190 99v9q0 34 -18 52q-19 17 -45 17q-42 0 -94 -27l-20 44q74 34 128 34q114 0 114 -114v-123q0 -17 2 -35.5t6 -40.5h-66zM355 535q-76 -3 -98 -19q-24 -17 -24 -42q0 -18 12 -30t29 -12
q46 0 81 45v58z" />
    <glyph glyph-name="guillemotleft" unicode="&#xab;" 
d="M513 68l-45 -39l-186 216v59l186 215l45 -39l-175 -206zM317 68l-45 -39l-186 216v59l186 215l45 -39l-175 -206z" />
    <glyph glyph-name="logicalnot" unicode="&#xac;" 
d="M531 243h-64v176h-398v64h462v-240z" />
    <glyph glyph-name="uni00AD" unicode="&#xad;" 
d="M440 238h-290v74h290v-74z" />
    <glyph glyph-name="registered" unicode="&#xae;" 
d="M300 702q123 0 209 -86t86 -208q0 -121 -86 -209q-87 -87 -209 -87q-123 0 -208 87q-87 87 -87 209t86 208t209 86zM300 166q99 0 172 71q71 71 71 171t-71 171q-73 71 -172 71q-100 0 -171 -71t-71 -171t71 -171t171 -71zM450 250h-70l-83 126h-38v-126h-62v319h100
q51 0 83 -25q32 -26 32 -69q0 -59 -61 -84zM259 427h33q60 0 60 46q0 44 -57 44h-36v-90z" />
    <glyph glyph-name="macron" unicode="&#xaf;" 
d="M466 596h-331v63h331v-63z" />
    <glyph glyph-name="degree" unicode="&#xb0;" 
d="M299 702q57 0 96 -39t39 -96q0 -56 -39 -95q-40 -40 -96 -40q-55 0 -95 40t-40 95q0 56 40 96q39 39 95 39zM299 484q34 0 59 25q24 24 24 58t-24 58q-26 24 -59 24t-58 -23q-24 -24 -24 -59q0 -34 24 -58q24 -25 58 -25z" />
    <glyph glyph-name="plusminus" unicode="&#xb1;" 
d="M531 321h-198v-200h-64v200h-200v64h200v200h64v-200h198v-64zM531 0h-462v64h462v-64z" />
    <glyph glyph-name="uni00B2" unicode="&#xb2;" 
d="M192 341l1 41q51 56 81.5 92t40.5 53q19 32 19 63q0 22 -15 36q-13 13 -41 13q-20 0 -74 -17l-8 52q45 18 89 18q52 0 82 -27q31 -27 31 -73q0 -27 -20 -65q-21 -38 -111 -133h136v-53h-211z" />
    <glyph glyph-name="uni00B3" unicode="&#xb3;" 
d="M319 525q32 -5 53 -27q22 -22 22 -52q0 -47 -39 -80q-38 -32 -91 -32q-45 0 -85 24l13 50q42 -20 74 -20q28 0 45 16q19 15 19 39q0 23 -21 40q-20 15 -54 15h-22v50h14q34 0 55 14q21 13 21 38q0 39 -55 39q-24 0 -69 -17l-8 52q42 18 79 18q50 0 84 -26q33 -26 33 -65
q0 -27 -19 -47t-49 -28v-1v0z" />
    <glyph glyph-name="acute" unicode="&#xb4;" 
d="M431 716l-152 -147h-55l97 147h110z" />
    <glyph glyph-name="uni00B5" unicode="&#xb5;" 
d="M496 0h-76v75q-83 -87 -173 -87q-40 0 -67 13v-166h-76v674h76v-326q0 -66 21 -97q20 -32 69 -32q70 0 150 87v368h76v-509z" />
    <glyph glyph-name="paragraph" unicode="&#xb6;" 
d="M555 637h-73v-808h-57v808h-116v-808h-58v440q-80 0 -156 59q-75 58 -75 144q0 100 68 159q67 58 181 58h286v-52z" />
    <glyph glyph-name="periodcentered" unicode="&#xb7;" 
d="M297 392q27 0 44 -17t17 -44q0 -26 -18 -45t-43 -19q-26 0 -42 19q-18 19 -18 45q0 25 17 44q17 17 43 17z" />
    <glyph glyph-name="cedilla" unicode="&#xb8;" 
d="M311 -26q58 -13 58 -61q0 -42 -31 -67t-79 -25q-21 0 -40 3v47q8 -1 15 -1.5t12 -0.5q26 0 46 11q18 10 18 25q0 32 -62 32l22 63h49z" />
    <glyph glyph-name="uni00B9" unicode="&#xb9;" 
d="M196 341v53h73v228l-69 -34v60l83 41h48v-295h68v-53h-203z" />
    <glyph glyph-name="ordmasculine" unicode="&#xba;" 
d="M294 702q65 0 106 -44q40 -43 40 -115q0 -73 -40 -116q-41 -45 -106 -45q-67 0 -106 44q-40 43 -40 117q0 71 40 115q39 44 106 44zM294 433q36 0 57 32q21 31 21 77q0 109 -78 109q-36 0 -57 -30t-21 -79q0 -46 21 -77q21 -32 57 -32z" />
    <glyph glyph-name="guillemotright" unicode="&#xbb;" 
d="M513 245l-186 -216l-45 39l175 206l-175 206l45 39l186 -215v-59zM317 245l-186 -216l-45 39l175 206l-175 206l45 39l186 -215v-59z" />
    <glyph glyph-name="onequarter" unicode="&#xbc;" 
d="M28 341v53h73v228l-69 -34v60l83 41h48v-295h68v-53h-203zM172 0h-57l313 689h58zM519 78v-78h-62v78h-150v42l140 228h72v-216h42v-54h-42zM457 270l-85 -138h85v138z" />
    <glyph glyph-name="onehalf" unicode="&#xbd;" 
d="M28 341v53h73v228l-69 -34v60l83 41h48v-295h68v-53h-203zM172 0h-57l313 689h58zM366 0l1 41q102 109 122 145q19 32 19 63q0 23 -14 36t-42 13q-11 0 -29 -4t-44 -13l-9 52q45 18 90 18q50 0 82 -27q30 -27 30 -73q0 -14 -4.5 -30t-15.5 -34q-19 -37 -110 -134h135v-53
h-211z" />
    <glyph glyph-name="threequarters" unicode="&#xbe;" 
d="M169 525q32 -5 53 -27q22 -22 22 -52q0 -47 -39 -80q-38 -32 -91 -32q-45 0 -85 24l13 50q42 -20 74 -20q28 0 45 16q19 15 19 39q0 23 -21 40q-20 15 -54 15h-22v50h14q34 0 55 14q21 13 21 38q0 39 -55 39q-24 0 -69 -17l-8 52q42 18 79 18q50 0 84 -26q33 -26 33 -65
q0 -27 -19 -47t-49 -28v-1zM172 0h-57l313 689h58zM519 78v-78h-62v78h-150v42l140 228h72v-216h42v-54h-42zM457 270l-85 -138h85v138z" />
    <glyph glyph-name="questiondown" unicode="&#xbf;" 
d="M352 521q25 0 43 -19q17 -20 17 -45q0 -26 -17 -43q-18 -18 -43 -18t-43 18t-18 43t18 45q18 19 43 19zM485 -155q-87 -39 -155 -39q-92 0 -142 41q-51 42 -51 123q0 84 109 174q23 20 38 32.5t20 19.5q9 12 17 32q6 19 6 46v27h67v-28q0 -86 -54 -132l-65 -57
q-15 -14 -26.5 -26.5t-18.5 -26.5q-15 -29 -15 -58q0 -51 32 -78q31 -27 88 -27q50 0 127 36z" />
    <glyph glyph-name="Agrave" unicode="&#xc0;" 
d="M574 0h-84l-76 241h-226l-77 -241h-83l225 689h96zM391 311l-90 285l-90 -285h180zM379 749h-55l-152 147h110z" />
    <glyph glyph-name="Aacute" unicode="&#xc1;" 
d="M574 0h-84l-76 241h-226l-77 -241h-83l225 689h96zM391 311l-90 285l-90 -285h180zM429 896l-152 -147h-55l97 147h110z" />
    <glyph glyph-name="Acircumflex" unicode="&#xc2;" 
d="M574 0h-84l-76 241h-226l-77 -241h-83l225 689h96zM391 311l-90 285l-90 -285h180zM455 749h-55l-97 94l-97 -94h-55l97 147h110z" />
    <glyph glyph-name="Atilde" unicode="&#xc3;" 
d="M574 0h-84l-76 241h-226l-77 -241h-83l225 689h96zM391 311l-90 285l-90 -285h180zM476 870q-16 -112 -94 -112q-28 0 -85 28q-51 23 -69 23q-19 0 -33 -14q-14 -15 -18 -37h-41q16 112 94 112q28 0 85 -28q51 -23 69 -23q19 0 34 15q14 14 17 36h41z" />
    <glyph glyph-name="Adieresis" unicode="&#xc4;" 
d="M343 807q0 22 15 37.5t37 15.5t37.5 -15.5t15.5 -37.5t-15.5 -37t-37.5 -15t-37 15t-15 37zM574 0h-84l-76 241h-226l-77 -241h-83l225 689h96zM391 311l-90 285l-90 -285h180zM151 807q0 22 15 37.5t37 15.5t37.5 -15.5t15.5 -37.5t-15.5 -37t-37.5 -15t-37 15t-15 37z
" />
    <glyph glyph-name="Aring" unicode="&#xc5;" 
d="M355 669q11 -34 27 -83q14 -42 34 -104.5t48 -146.5l110 -335h-84l-76 241h-226l-77 -241h-83l218 668q-39 30 -39 76q0 38 28 66q27 27 65 27q39 0 66 -27t27 -66q0 -46 -38 -75zM300 689q22 0 39 17q16 16 16 38q0 23 -16 39t-39 16q-22 0 -38 -16q-17 -17 -17 -39
t16 -38q17 -17 39 -17zM391 311l-90 285l-90 -285h180z" />
    <glyph glyph-name="AE" unicode="&#xc6;" 
d="M577 0h-286v246h-127l-76 -246h-82l220 689h348v-70h-203v-213h192v-70h-192v-266h206v-70zM291 316v300h-11l-93 -300h104z" />
    <glyph glyph-name="Ccedilla" unicode="&#xc7;" 
d="M523 43q-71 -50 -168 -55l-4 -14q58 -13 58 -61q0 -42 -31 -67t-79 -25q-21 0 -40 3v47q8 -1 15 -1.5t12 -0.5q26 0 46 11q18 10 18 25q0 32 -62 32l18 51q-121 11 -182 102q-62 92 -62 254q0 168 68 263t205 95q25 0 49.5 -2.5t49.5 -9.5q46 -11 78 -34l-26 -63
q-69 39 -151 39q-95 0 -141 -69q-47 -70 -47 -219q0 -287 188 -287q81 0 163 49z" />
    <glyph glyph-name="Egrave" unicode="&#xc8;" 
d="M485 0h-360v689h357v-70h-277v-213h266v-70h-266v-266h280v-70zM380 749h-55l-152 147h110z" />
    <glyph glyph-name="Eacute" unicode="&#xc9;" 
d="M485 0h-360v689h357v-70h-277v-213h266v-70h-266v-266h280v-70zM432 896l-152 -147h-55l97 147h110z" />
    <glyph glyph-name="Ecircumflex" unicode="&#xca;" 
d="M485 0h-360v689h357v-70h-277v-213h266v-70h-266v-266h280v-70zM459 749h-55l-97 94l-97 -94h-55l97 147h110z" />
    <glyph glyph-name="Edieresis" unicode="&#xcb;" 
d="M353 807q0 22 15 37.5t37 15.5t37.5 -15.5t15.5 -37.5t-15.5 -37t-37.5 -15t-37 15t-15 37zM485 0h-360v689h357v-70h-277v-213h266v-70h-266v-266h280v-70zM159 807q0 22 15 37.5t37 15.5t37.5 -15.5t15.5 -37.5t-15.5 -37t-37.5 -15t-37 15t-15 37z" />
    <glyph glyph-name="Igrave" unicode="&#xcc;" 
d="M453 0h-313v70h119v549h-119v70h313v-70h-114v-549h114v-70zM364 749h-55l-152 147h110z" />
    <glyph glyph-name="Iacute" unicode="&#xcd;" 
d="M453 0h-313v70h119v549h-119v70h313v-70h-114v-549h114v-70zM412 896l-152 -147h-55l97 147h110z" />
    <glyph glyph-name="Icircumflex" unicode="&#xce;" 
d="M453 0h-313v70h119v549h-119v70h313v-70h-114v-549h114v-70zM448 749h-55l-97 94l-97 -94h-55l97 147h110z" />
    <glyph glyph-name="Idieresis" unicode="&#xcf;" 
d="M340 807q0 22 15 37.5t37 15.5t37.5 -15.5t15.5 -37.5t-15.5 -37t-37.5 -15t-37 15t-15 37zM453 0h-313v70h119v549h-119v70h313v-70h-114v-549h114v-70zM148 807q0 22 15 37.5t37 15.5t37.5 -15.5t15.5 -37.5t-15.5 -37t-37.5 -15t-37 15t-15 37z" />
    <glyph glyph-name="Eth" unicode="&#xd0;" 
d="M536 344q0 -165 -82 -254q-83 -90 -213 -90h-139v317h-70v70h70v302h136q134 0 217 -92q81 -92 81 -253zM451 344q0 128 -57 202q-58 73 -155 73h-57v-231h88v-70l-88 -1v-247h57q98 0 155 73q57 72 57 201z" />
    <glyph glyph-name="Ntilde" unicode="&#xd1;" 
d="M508 0h-89l-247 544v-544h-80v689h89l248 -539v539h79v-689zM470 870q-16 -112 -94 -112q-28 0 -85 28q-51 23 -69 23q-19 0 -33 -14q-15 -15 -18 -37h-41q16 112 94 112q28 0 85 -28q51 -23 69 -23q19 0 33 15q13 13 18 36h41z" />
    <glyph glyph-name="Ograve" unicode="&#xd2;" 
d="M299 702q116 0 177 -91q60 -92 60 -267q0 -174 -60 -265q-62 -92 -177 -92q-114 0 -176 92q-61 91 -61 265q0 176 61 267q60 91 176 91zM299 57q152 0 152 287q0 288 -152 288q-74 0 -113 -74q-39 -75 -39 -214q0 -140 39 -213q38 -74 113 -74zM369 749h-55l-152 147h110
z" />
    <glyph glyph-name="Oacute" unicode="&#xd3;" 
d="M299 702q116 0 177 -91q60 -92 60 -267q0 -174 -60 -265q-62 -92 -177 -92q-114 0 -176 92q-61 91 -61 265q0 176 61 267q60 91 176 91zM299 57q152 0 152 287q0 288 -152 288q-74 0 -113 -74q-39 -75 -39 -214q0 -140 39 -213q38 -74 113 -74zM426 896l-152 -147h-55
l97 147h110z" />
    <glyph glyph-name="Ocircumflex" unicode="&#xd4;" 
d="M299 702q116 0 177 -91q60 -92 60 -267q0 -174 -60 -265q-62 -92 -177 -92q-114 0 -176 92q-61 91 -61 265q0 176 61 267q60 91 176 91zM299 57q152 0 152 287q0 288 -152 288q-74 0 -113 -74q-39 -75 -39 -214q0 -140 39 -213q38 -74 113 -74zM451 749h-55l-97 94
l-97 -94h-55l97 147h110z" />
    <glyph glyph-name="Otilde" unicode="&#xd5;" 
d="M299 702q116 0 177 -91q60 -92 60 -267q0 -174 -60 -265q-62 -92 -177 -92q-114 0 -176 92q-61 91 -61 265q0 176 61 267q60 91 176 91zM299 57q152 0 152 287q0 288 -152 288q-74 0 -113 -74q-39 -75 -39 -214q0 -140 39 -213q38 -74 113 -74zM465 870
q-16 -112 -94 -112q-28 0 -85 28q-51 23 -69 23q-19 0 -33 -14q-15 -15 -18 -37h-41q16 112 94 112q28 0 85 -28q51 -23 69 -23q19 0 33 15q13 13 18 36h41z" />
    <glyph glyph-name="Odieresis" unicode="&#xd6;" 
d="M344 807q0 22 15 37.5t37 15.5t37.5 -15.5t15.5 -37.5t-15.5 -37t-37.5 -15t-37 15t-15 37zM299 702q116 0 177 -91q60 -92 60 -267q0 -174 -60 -265q-62 -92 -177 -92q-114 0 -176 92q-61 91 -61 265q0 176 61 267q60 91 176 91zM299 57q152 0 152 287q0 288 -152 288
q-74 0 -113 -74q-39 -75 -39 -214q0 -140 39 -213q38 -74 113 -74zM152 807q0 22 15 37.5t37 15.5t37.5 -15.5t15.5 -37.5t-15.5 -37t-37.5 -15t-37 15t-15 37z" />
    <glyph glyph-name="multiply" unicode="&#xd7;" 
d="M456 153l-155 155l-156 -155l-45 45l155 156l-155 155l45 46l156 -156l154 154l45 -45l-154 -154l156 -156z" />
    <glyph glyph-name="Oslash" unicode="&#xd8;" 
d="M457 635q79 -91 79 -291q0 -174 -60 -265q-62 -92 -177 -92q-61 0 -108 26l-30 -70h-66l47 110q-80 91 -80 291q0 176 61 267q60 91 176 91q61 0 108 -27l32 75h67zM377 605q-33 27 -78 27q-74 0 -113 -74q-39 -75 -39 -214q0 -127 33 -202zM221 84q33 -27 78 -27
q152 0 152 287q0 130 -32 202z" />
    <glyph glyph-name="Ugrave" unicode="&#xd9;" 
d="M498 217q0 -120 -48 -175q-49 -55 -148 -55q-200 0 -200 228v474h80v-467q0 -165 120 -165q59 0 88 39q28 38 28 127v466h80v-472zM366 749h-55l-152 147h110z" />
    <glyph glyph-name="Uacute" unicode="&#xda;" 
d="M498 217q0 -120 -48 -175q-49 -55 -148 -55q-200 0 -200 228v474h80v-467q0 -165 120 -165q59 0 88 39q28 38 28 127v466h80v-472zM430 896l-152 -147h-55l97 147h110z" />
    <glyph glyph-name="Ucircumflex" unicode="&#xdb;" 
d="M498 217q0 -120 -48 -175q-49 -55 -148 -55q-200 0 -200 228v474h80v-467q0 -165 120 -165q59 0 88 39q28 38 28 127v466h80v-472zM453 749h-55l-97 94l-97 -94h-55l97 147h110z" />
    <glyph glyph-name="Udieresis" unicode="&#xdc;" 
d="M343 807q0 22 15 37.5t37 15.5t37.5 -15.5t15.5 -37.5t-15.5 -37t-37.5 -15t-37 15t-15 37zM498 217q0 -120 -48 -175q-49 -55 -148 -55q-200 0 -200 228v474h80v-467q0 -165 120 -165q59 0 88 39q28 38 28 127v466h80v-472zM151 807q0 22 15 37.5t37 15.5t37.5 -15.5
t15.5 -37.5t-15.5 -37t-37.5 -15t-37 15t-15 37z" />
    <glyph glyph-name="Yacute" unicode="&#xdd;" 
d="M556 689l-215 -394v-295h-80v295l-215 394h90l165 -310l165 310h90zM464 896l-152 -147h-55l97 147h110z" />
    <glyph glyph-name="Thorn" unicode="&#xde;" 
d="M300 547q99 0 158 -50q60 -50 60 -137q0 -88 -59 -141q-59 -52 -156 -52h-98v-167h-80v689h80v-142h95zM292 237q141 0 141 118q0 55 -38 88q-38 34 -99 34h-91v-240h87z" />
    <glyph glyph-name="germandbls" unicode="&#xdf;" 
d="M76 0v503q0 93 51 146q51 52 145 52q179 0 179 -147q0 -25 -14 -51t-65 -62q-38 -26 -45 -38q-9 -14 -9 -26q0 -27 23 -42q11 -8 36.5 -19t63.5 -27q114 -47 114 -153q0 -68 -48 -108q-50 -41 -128 -41q-73 0 -136 26l16 66q57 -28 117 -28q44 0 74 24t30 58t-19 56
q-21 24 -75 46q-32 13 -54.5 23.5t-33.5 17.5q-23 14 -39 39q-16 26 -16 61q0 24 14 47q7 11 22 26t40 32q37 26 48 41q9 13 9 28q0 40 -26 63q-26 22 -77 22q-57 0 -89 -38t-32 -111v-486h-76z" />
    <glyph glyph-name="agrave" unicode="&#xe0;" 
d="M434 0q-9 31 -9 82q-65 -95 -177 -95q-57 0 -100 40t-43 104q0 37 15 66q16 30 45 49q29 20 71 32q42 10 99 15l86 7v24q0 131 -122 131q-30 0 -73 -12q-46 -14 -76 -30l-20 55q104 53 193 53q174 0 174 -184v-219q0 -67 13 -118h-76zM421 243q-52 -5 -87 -9t-54 -8
q-38 -7 -67 -30q-28 -22 -28 -60q0 -34 24 -55t61 -21q40 0 81 24q40 24 70 67v92zM401 569h-55l-152 147h110z" />
    <glyph glyph-name="aacute" unicode="&#xe1;" 
d="M434 0q-9 31 -9 82q-65 -95 -177 -95q-57 0 -100 40t-43 104q0 37 15 66q16 30 45 49q29 20 71 32q42 10 99 15l86 7v24q0 131 -122 131q-30 0 -73 -12q-46 -14 -76 -30l-20 55q104 53 193 53q174 0 174 -184v-219q0 -67 13 -118h-76zM421 243q-52 -5 -87 -9t-54 -8
q-38 -7 -67 -30q-28 -22 -28 -60q0 -34 24 -55t61 -21q40 0 81 24q40 24 70 67v92zM448 716l-152 -147h-55l97 147h110z" />
    <glyph glyph-name="acircumflex" unicode="&#xe2;" 
d="M434 0q-9 31 -9 82q-65 -95 -177 -95q-57 0 -100 40t-43 104q0 37 15 66q16 30 45 49q29 20 71 32q42 10 99 15l86 7v24q0 131 -122 131q-30 0 -73 -12q-46 -14 -76 -30l-20 55q104 53 193 53q174 0 174 -184v-219q0 -67 13 -118h-76zM421 243q-52 -5 -87 -9t-54 -8
q-38 -7 -67 -30q-28 -22 -28 -60q0 -34 24 -55t61 -21q40 0 81 24q40 24 70 67v92zM468 569h-55l-97 94l-97 -94h-55l97 147h110z" />
    <glyph glyph-name="atilde" unicode="&#xe3;" 
d="M434 0q-9 31 -9 82q-65 -95 -177 -95q-57 0 -100 40t-43 104q0 37 15 66q16 30 45 49q29 20 71 32q42 10 99 15l86 7v24q0 131 -122 131q-30 0 -73 -12q-46 -14 -76 -30l-20 55q104 53 193 53q174 0 174 -184v-219q0 -67 13 -118h-76zM421 243q-52 -5 -87 -9t-54 -8
q-38 -7 -67 -30q-28 -22 -28 -60q0 -34 24 -55t61 -21q40 0 81 24q40 24 70 67v92zM482 690q-16 -112 -94 -112q-28 0 -85 28q-51 23 -69 23q-19 0 -33 -14q-14 -15 -18 -37h-41q16 112 94 112q26 0 85 -27q49 -24 69 -24q19 0 34 15q14 14 17 36h41z" />
    <glyph glyph-name="adieresis" unicode="&#xe4;" 
d="M357 625q0 22 15 37.5t37 15.5t37.5 -15.5t15.5 -37.5t-15.5 -37t-37.5 -15t-37 15t-15 37zM434 0q-9 31 -9 82q-65 -95 -177 -95q-57 0 -100 40t-43 104q0 37 15 66q16 30 45 49q29 20 71 32q42 10 99 15l86 7v24q0 131 -122 131q-30 0 -73 -12q-46 -14 -76 -30l-20 55
q104 53 193 53q174 0 174 -184v-219q0 -67 13 -118h-76zM421 243q-52 -5 -87 -9t-54 -8q-38 -7 -67 -30q-28 -22 -28 -60q0 -34 24 -55t61 -21q40 0 81 24q40 24 70 67v92zM163 625q0 22 15 37.5t37 15.5t37.5 -15.5t15.5 -37.5t-15.5 -37t-37.5 -15t-37 15t-15 37z" />
    <glyph glyph-name="aring" unicode="&#xe5;" 
d="M434 0q-9 31 -9 82q-65 -95 -177 -95q-57 0 -100 40t-43 104q0 37 15 66q16 30 45 49q29 20 71 32q42 10 99 15l86 7v24q0 131 -122 131q-30 0 -73 -12q-46 -14 -76 -30l-20 55q104 53 193 53q174 0 174 -184v-219q0 -67 13 -118h-76zM421 243q-52 -5 -87 -9t-54 -8
q-38 -7 -67 -30q-28 -22 -28 -60q0 -34 24 -55t61 -21q40 0 81 24q40 24 70 67v92zM313 756q39 0 66 -27t27 -66q0 -38 -27 -65q-28 -28 -66 -28q-37 0 -65 28t-28 65q0 38 28 66q27 27 65 27zM313 608q22 0 39 17q16 16 16 38q0 23 -16 39t-39 16q-22 0 -38 -16
q-17 -17 -17 -39t17 -39q16 -16 38 -16z" />
    <glyph glyph-name="ae" unicode="&#xe6;" 
d="M579 17q-63 -30 -126 -30q-101 0 -151 86q-65 -86 -151 -86q-56 0 -92 39q-37 38 -37 105q0 69 53 113q52 43 189 55v25q0 69 -22 100t-77 31q-40 0 -103 -28l-20 58q73 36 147 36q91 0 125 -58q43 58 114 58q70 0 110 -61t40 -179v-29h-238v-9q0 -91 29 -141
q28 -49 84 -49q55 0 115 25zM493 314q0 66 -17 105q-16 37 -48 37q-39 0 -62 -38t-26 -104h153zM264 243q-78 -4 -120 -34q-42 -29 -42 -73q0 -33 21 -54q21 -22 51 -22q34 0 63 26q27 25 27 39v118z" />
    <glyph glyph-name="ccedilla" unicode="&#xe7;" 
d="M495 17q-63 -28 -140 -30l-4 -13q58 -13 58 -61q0 -42 -31 -67t-79 -25q-21 0 -40 3v47q8 -1 15 -1.5t12 -0.5q26 0 46 11q18 10 18 25q0 32 -62 32l18 53q-103 13 -162 85q-58 70 -58 179q0 120 72 194q72 73 189 73q77 0 146 -27l-20 -63q-69 24 -125 24
q-84 0 -133 -54q-49 -53 -49 -147q0 -85 51 -143t132 -58q67 0 133 25z" />
    <glyph glyph-name="egrave" unicode="&#xe8;" 
d="M512 252h-349q0 -86 50 -142q49 -57 123 -57q71 0 143 25l13 -61q-68 -30 -157 -30q-112 0 -182 73t-70 196q0 121 63 193q61 72 160 72q89 0 147 -67q59 -68 59 -178v-24zM429 314q0 61 -37 101t-83 40q-59 0 -98 -39q-38 -38 -43 -102h261zM377 569h-55l-152 147h110z
" />
    <glyph glyph-name="eacute" unicode="&#xe9;" 
d="M512 252h-349q0 -86 50 -142q49 -57 123 -57q71 0 143 25l13 -61q-68 -30 -157 -30q-112 0 -182 73t-70 196q0 121 63 193q61 72 160 72q89 0 147 -67q59 -68 59 -178v-24zM429 314q0 61 -37 101t-83 40q-59 0 -98 -39q-38 -38 -43 -102h261zM427 716l-152 -147h-55
l97 147h110z" />
    <glyph glyph-name="ecircumflex" unicode="&#xea;" 
d="M512 252h-349q0 -86 50 -142q49 -57 123 -57q71 0 143 25l13 -61q-68 -30 -157 -30q-112 0 -182 73t-70 196q0 121 63 193q61 72 160 72q89 0 147 -67q59 -68 59 -178v-24zM429 314q0 61 -37 101t-83 40q-59 0 -98 -39q-38 -38 -43 -102h261zM452 569h-55l-97 94l-97 -94
h-55l97 147h110z" />
    <glyph glyph-name="edieresis" unicode="&#xeb;" 
d="M351 625q0 22 15 37.5t37 15.5t37.5 -15.5t15.5 -37.5t-15.5 -37t-37.5 -15t-37 15t-15 37zM512 252h-349q0 -86 50 -142q49 -57 123 -57q71 0 143 25l13 -61q-68 -30 -157 -30q-112 0 -182 73t-70 196q0 121 63 193q61 72 160 72q89 0 147 -67q59 -68 59 -178v-24z
M429 314q0 61 -37 101t-83 40q-59 0 -98 -39q-38 -38 -43 -102h261zM158 625q0 22 15 37.5t37 15.5t37.5 -15.5t15.5 -37.5t-15.5 -37t-37.5 -15t-37 15t-15 37z" />
    <glyph glyph-name="igrave" unicode="&#xec;" 
d="M370 0h-76v443h-150v66h226v-509zM371 569h-55l-152 147h110z" />
    <glyph glyph-name="iacute" unicode="&#xed;" 
d="M370 0h-76v443h-150v66h226v-509zM423 716l-152 -147h-55l97 147h110z" />
    <glyph glyph-name="icircumflex" unicode="&#xee;" 
d="M370 0h-76v443h-150v66h226v-509zM441 569h-55l-96 94l-98 -94h-55l97 147h110z" />
    <glyph glyph-name="idieresis" unicode="&#xef;" 
d="M340 625q0 22 15 37.5t37 15.5t37.5 -15.5t15.5 -37.5t-15.5 -37t-37.5 -15t-37 15t-15 37zM370 0h-76v443h-150v66h226v-509zM147 625q0 22 15 37.5t37 15.5t37.5 -15.5t15.5 -37.5t-15.5 -37t-37.5 -15t-37 15t-15 37z" />
    <glyph glyph-name="eth" unicode="&#xf0;" 
d="M331 637q100 -92 149 -185q49 -92 49 -203q0 -114 -62 -188q-61 -74 -167 -74t-167 73q-62 74 -62 195q0 119 62 193q61 73 167 73q13 0 25.5 -1.5t26.5 -3.5q-38 56 -71 87l-57 -41l-37 35l58 40q-29 29 -65 56l37 40q20 -14 39 -29.5t39 -32.5l60 44l35 -34zM300 53
q70 0 109 59q40 58 40 142q0 88 -39 144q-39 57 -110 57t-110 -56t-39 -145q0 -85 40 -143t109 -58z" />
    <glyph glyph-name="ntilde" unicode="&#xf1;" 
d="M497 0h-76v326q0 68 -22 99q-23 30 -68 30q-71 0 -150 -87v-368h-76v509h76v-75q82 87 173 87q143 0 143 -173v-348zM469 690q-16 -112 -94 -112q-28 0 -85 28q-51 23 -69 23q-19 0 -33 -14q-15 -15 -18 -37h-41q16 112 94 112q26 0 85 -27q49 -24 69 -24q19 0 33 15
q13 13 18 36h41z" />
    <glyph glyph-name="ograve" unicode="&#xf2;" 
d="M300 521q106 0 167 -73q62 -74 62 -193q0 -120 -62 -194t-167 -74t-167 74t-62 194q0 119 62 193q61 73 167 73zM300 53q68 0 109 59q40 58 40 142q0 90 -39 145q-39 56 -110 56t-110 -56t-39 -145q0 -85 40 -143q39 -58 109 -58zM388 569h-55l-152 147h110z" />
    <glyph glyph-name="oacute" unicode="&#xf3;" 
d="M300 521q106 0 167 -73q62 -74 62 -193q0 -120 -62 -194t-167 -74t-167 74t-62 194q0 119 62 193q61 73 167 73zM300 53q68 0 109 59q40 58 40 142q0 90 -39 145q-39 56 -110 56t-110 -56t-39 -145q0 -85 40 -143q39 -58 109 -58zM436 716l-152 -147h-55l97 147h110z" />
    <glyph glyph-name="ocircumflex" unicode="&#xf4;" 
d="M300 521q106 0 167 -73q62 -74 62 -193q0 -120 -62 -194t-167 -74t-167 74t-62 194q0 119 62 193q61 73 167 73zM300 53q68 0 109 59q40 58 40 142q0 90 -39 145q-39 56 -110 56t-110 -56t-39 -145q0 -85 40 -143q39 -58 109 -58zM453 569h-55l-97 94l-97 -94h-55l97 147
h110z" />
    <glyph glyph-name="otilde" unicode="&#xf5;" 
d="M300 521q106 0 167 -73q62 -74 62 -193q0 -120 -62 -194t-167 -74t-167 74t-62 194q0 119 62 193q61 73 167 73zM300 53q68 0 109 59q40 58 40 142q0 90 -39 145q-39 56 -110 56t-110 -56t-39 -145q0 -85 40 -143q39 -58 109 -58zM471 690q-16 -112 -94 -112
q-28 0 -85 28q-51 23 -69 23q-19 0 -33 -14q-15 -15 -18 -37h-41q16 112 94 112q26 0 85 -27q49 -24 69 -24q19 0 33 15q13 13 18 36h41z" />
    <glyph glyph-name="odieresis" unicode="&#xf6;" 
d="M344 625q0 22 15 37.5t37 15.5t37.5 -15.5t15.5 -37.5t-15.5 -37t-37.5 -15t-37 15t-15 37zM300 521q106 0 167 -73q62 -74 62 -193q0 -120 -62 -194t-167 -74t-167 74t-62 194q0 119 62 193q61 73 167 73zM300 53q68 0 109 59q40 58 40 142q0 90 -39 145q-39 56 -110 56
t-110 -56t-39 -145q0 -85 40 -143q39 -58 109 -58zM152 625q0 22 15 37.5t37 15.5t37.5 -15.5t15.5 -37.5t-15.5 -37t-37.5 -15t-37 15t-15 37z" />
    <glyph glyph-name="divide" unicode="&#xf7;" 
d="M301 597q23 0 39 -16t16 -39q0 -24 -16 -40q-17 -17 -39 -17q-23 0 -38 17q-16 16 -16 40t16 40q15 15 38 15zM531 321h-462v64h462v-64zM301 221q23 0 39 -16t16 -39q0 -24 -16 -40q-17 -17 -39 -17q-23 0 -38 17q-16 16 -16 40t16 40q15 15 38 15z" />
    <glyph glyph-name="oslash" unicode="&#xf8;" 
d="M435 478q94 -73 94 -223q0 -120 -62 -194t-167 -74q-36 0 -72 10l-30 -70h-66l41 96q-102 72 -102 232q0 119 62 193q61 73 167 73q43 0 81 -13l31 72h67zM354 445q-26 10 -54 10q-71 0 -110 -56t-39 -145q0 -101 53 -160zM255 60q21 -7 45 -7q68 0 109 59q40 58 40 142
q0 93 -45 152z" />
    <glyph glyph-name="ugrave" unicode="&#xf9;" 
d="M496 0h-76v75q-83 -87 -173 -87q-143 0 -143 173v348h76v-326q0 -66 21 -97q20 -32 69 -32q70 0 150 87v368h76v-509zM375 569h-55l-152 147h110z" />
    <glyph glyph-name="uacute" unicode="&#xfa;" 
d="M496 0h-76v75q-83 -87 -173 -87q-143 0 -143 173v348h76v-326q0 -66 21 -97q20 -32 69 -32q70 0 150 87v368h76v-509zM434 716l-152 -147h-55l97 147h110z" />
    <glyph glyph-name="ucircumflex" unicode="&#xfb;" 
d="M496 0h-76v75q-83 -87 -173 -87q-143 0 -143 173v348h76v-326q0 -66 21 -97q20 -32 69 -32q70 0 150 87v368h76v-509zM449 569h-55l-97 94l-97 -94h-55l97 147h110z" />
    <glyph glyph-name="udieresis" unicode="&#xfc;" 
d="M340 625q0 22 15 37.5t37 15.5t37.5 -15.5t15.5 -37.5t-15.5 -37t-37.5 -15t-37 15t-15 37zM496 0h-76v75q-83 -87 -173 -87q-143 0 -143 173v348h76v-326q0 -66 21 -97q20 -32 69 -32q70 0 150 87v368h76v-509zM147 625q0 22 15 37.5t37 15.5t37.5 -15.5t15.5 -37.5
t-15.5 -37t-37.5 -15t-37 15t-15 37z" />
    <glyph glyph-name="yacute" unicode="&#xfd;" 
d="M520 509l-193 -509q-41 -111 -83 -157q-41 -44 -94 -44q-45 0 -93 17l13 61q37 -12 66 -12q41 0 68 32q26 32 53 104l-191 508h83l144 -406l144 406h83zM431 716l-152 -147h-55l97 147h110z" />
    <glyph glyph-name="thorn" unicode="&#xfe;" 
d="M181 443q25 34 69 57q43 21 91 21q87 0 138 -73q50 -73 50 -188q0 -116 -53 -195q-53 -78 -141 -78q-46 0 -89 23q-41 24 -65 63v-274h-76v890h76v-246zM181 156q20 -42 58 -72q38 -29 76 -29q62 0 98 58q36 57 36 143q0 88 -34 143q-35 56 -97 56q-80 0 -137 -88v-211z
" />
    <glyph glyph-name="ydieresis" unicode="&#xff;" 
d="M340 625q0 22 15 37.5t37 15.5t37.5 -15.5t15.5 -37.5t-15.5 -37t-37.5 -15t-37 15t-15 37zM520 509l-193 -509q-41 -111 -83 -157q-41 -44 -94 -44q-45 0 -93 17l13 61q37 -12 66 -12q41 0 68 32q26 32 53 104l-191 508h83l144 -406l144 406h83zM146 625q0 22 15 37.5
t37 15.5t37.5 -15.5t15.5 -37.5t-15.5 -37t-37.5 -15t-37 15t-15 37z" />
    <glyph glyph-name="Amacron" unicode="&#x100;" 
d="M574 0h-84l-76 241h-226l-77 -241h-83l225 689h96zM391 311l-90 285l-90 -285h180zM460 777h-331v63h331v-63z" />
    <glyph glyph-name="amacron" unicode="&#x101;" 
d="M434 0q-9 31 -9 82q-65 -95 -177 -95q-57 0 -100 40t-43 104q0 37 15 66q16 30 45 49q29 20 71 32q42 10 99 15l86 7v24q0 131 -122 131q-30 0 -73 -12q-46 -14 -76 -30l-20 55q104 53 193 53q174 0 174 -184v-219q0 -67 13 -118h-76zM421 243q-52 -5 -87 -9t-54 -8
q-38 -7 -67 -30q-28 -22 -28 -60q0 -34 24 -55t61 -21q40 0 81 24q40 24 70 67v92zM473 596h-331v63h331v-63z" />
    <glyph glyph-name="Abreve" unicode="&#x102;" 
d="M574 0h-84l-76 241h-226l-77 -241h-83l225 689h96zM391 311l-90 285l-90 -285h180zM441 878q-12 -63 -48 -96q-38 -33 -92 -33q-118 0 -143 129h67q14 -62 77 -62q57 0 71 62h68z" />
    <glyph glyph-name="abreve" unicode="&#x103;" 
d="M434 0q-9 31 -9 82q-65 -95 -177 -95q-57 0 -100 40t-43 104q0 37 15 66q16 30 45 49q29 20 71 32q42 10 99 15l86 7v24q0 131 -122 131q-30 0 -73 -12q-46 -14 -76 -30l-20 55q104 53 193 53q174 0 174 -184v-219q0 -67 13 -118h-76zM421 243q-52 -5 -87 -9t-54 -8
q-38 -7 -67 -30q-28 -22 -28 -60q0 -34 24 -55t61 -21q40 0 81 24q40 24 70 67v92zM458 698q-12 -63 -48 -96q-38 -33 -92 -33q-118 0 -143 129h67q14 -62 77 -62q57 0 71 62h68z" />
    <glyph glyph-name="Aogonek" unicode="&#x104;" 
d="M620 -163q-35 -16 -73 -16q-45 0 -73 25t-28 65q0 43 44 89l-76 241h-226l-77 -241h-83l225 689h96l225 -689h-34q-35 -44 -35 -69q0 -62 60 -62q16 0 55 11v-43zM391 311l-90 285l-90 -285h180z" />
    <glyph glyph-name="aogonek" unicode="&#x105;" 
d="M565 -163q-35 -16 -73 -16q-45 0 -73 25t-28 65q0 43 44 89h-1q-9 31 -9 82q-65 -95 -177 -95q-57 0 -100 40t-43 104q0 37 15 66q16 30 45 49q29 20 71 32q42 10 99 15l86 7v24q0 131 -122 131q-30 0 -73 -12q-46 -14 -76 -30l-20 55q104 53 193 53q174 0 174 -184v-219
q0 -67 13 -118h-25q-35 -44 -35 -69q0 -62 60 -62q16 0 55 11v-43zM421 243q-52 -5 -87 -9t-54 -8q-38 -7 -67 -30q-28 -22 -28 -60q0 -34 24 -55t61 -21q40 0 81 24q40 24 70 67v92z" />
    <glyph glyph-name="Cacute" unicode="&#x106;" 
d="M523 43q-82 -56 -188 -56q-134 0 -203 92q-70 91 -70 265q0 168 68 263t205 95q25 0 49.5 -2.5t49.5 -9.5q46 -11 78 -34l-26 -63q-69 39 -151 39q-95 0 -141 -69q-47 -70 -47 -219q0 -287 188 -287q81 0 163 49zM476 896l-152 -147h-55l97 147h110z" />
    <glyph glyph-name="cacute" unicode="&#x107;" 
d="M495 17q-66 -30 -146 -30q-121 0 -191 73q-72 73 -72 194q0 120 72 194q72 73 189 73q77 0 146 -27l-20 -63q-69 24 -125 24q-84 0 -133 -54q-49 -53 -49 -147q0 -85 51 -143t132 -58q67 0 133 25zM466 716l-152 -147h-55l97 147h110z" />
    <glyph glyph-name="Ccircumflex" unicode="&#x108;" 
d="M523 43q-82 -56 -188 -56q-134 0 -203 92q-70 91 -70 265q0 168 68 263t205 95q25 0 49.5 -2.5t49.5 -9.5q46 -11 78 -34l-26 -63q-69 39 -151 39q-95 0 -141 -69q-47 -70 -47 -219q0 -287 188 -287q81 0 163 49zM491 749h-55l-97 94l-97 -94h-55l97 147h110z" />
    <glyph glyph-name="ccircumflex" unicode="&#x109;" 
d="M495 17q-66 -30 -146 -30q-121 0 -191 73q-72 73 -72 194q0 120 72 194q72 73 189 73q77 0 146 -27l-20 -63q-69 24 -125 24q-84 0 -133 -54q-49 -53 -49 -147q0 -85 51 -143t132 -58q67 0 133 25zM489 569h-55l-97 94l-97 -94h-55l97 147h110z" />
    <glyph glyph-name="Cdotaccent" unicode="&#x10a;" 
d="M523 43q-82 -56 -188 -56q-134 0 -203 92q-70 91 -70 265q0 168 68 263t205 95q25 0 49.5 -2.5t49.5 -9.5q46 -11 78 -34l-26 -63q-69 39 -151 39q-95 0 -141 -69q-47 -70 -47 -219q0 -287 188 -287q81 0 163 49zM283 806q0 22 15 37.5t37 15.5t37.5 -15.5t15.5 -37.5
t-15.5 -37t-37.5 -15t-37 15t-15 37z" />
    <glyph glyph-name="cdotaccent" unicode="&#x10b;" 
d="M495 17q-66 -30 -146 -30q-121 0 -191 73q-72 73 -72 194q0 120 72 194q72 73 189 73q77 0 146 -27l-20 -63q-69 24 -125 24q-84 0 -133 -54q-49 -53 -49 -147q0 -85 51 -143t132 -58q67 0 133 25zM288 625q0 22 15 37.5t37 15.5t37.5 -15.5t15.5 -37.5t-15.5 -37
t-37.5 -15t-37 15t-15 37z" />
    <glyph glyph-name="Ccaron" unicode="&#x10c;" 
d="M523 43q-82 -56 -188 -56q-134 0 -203 92q-70 91 -70 265q0 168 68 263t205 95q25 0 49.5 -2.5t49.5 -9.5q46 -11 78 -34l-26 -63q-69 39 -151 39q-95 0 -141 -69q-47 -70 -47 -219q0 -287 188 -287q81 0 163 49zM488 896l-97 -147h-110l-97 147h55l97 -94l97 94h55z" />
    <glyph glyph-name="ccaron" unicode="&#x10d;" 
d="M495 17q-66 -30 -146 -30q-121 0 -191 73q-72 73 -72 194q0 120 72 194q72 73 189 73q77 0 146 -27l-20 -63q-69 24 -125 24q-84 0 -133 -54q-49 -53 -49 -147q0 -85 51 -143t132 -58q67 0 133 25zM493 716l-97 -147h-110l-97 147h55l97 -94l97 94h55z" />
    <glyph glyph-name="Dcaron" unicode="&#x10e;" 
d="M102 689h136q134 0 217 -92q81 -92 81 -253q0 -165 -82 -254q-83 -90 -213 -90h-139v689zM182 70h57q98 0 155 73q57 72 57 201q0 128 -57 202q-58 73 -155 73h-57v-549zM434 896l-97 -147h-110l-97 147h55l97 -94l97 94h55z" />
    <glyph glyph-name="dcaron" unicode="&#x10f;" 
d="M495 0h-76v73q-22 -36 -67 -61q-43 -25 -92 -25q-89 0 -138 78q-51 78 -51 197q0 112 53 186q52 73 140 73q96 0 155 -78v246h76v-689zM419 367q-55 88 -132 88q-63 0 -99 -56q-37 -55 -37 -141q0 -87 35 -145q34 -58 94 -58q30 0 58 16q30 16 55 47q26 32 26 38v211z
M604 572q-23 3 -38 21t-15 41q0 25 15 42t36 17q24 0 42 -22q18 -23 18 -54q0 -96 -95 -149l-17 35q54 30 54 69z" />
    <glyph glyph-name="Dcroat" unicode="&#x110;" 
d="M536 344q0 -165 -82 -254q-83 -90 -213 -90h-139v317h-70v70h70v302h136q134 0 217 -92q81 -92 81 -253zM451 344q0 128 -57 202q-58 73 -155 73h-57v-232h88v-70h-88v-247h57q98 0 155 73q57 72 57 201z" />
    <glyph glyph-name="dcroat" unicode="&#x111;" 
d="M553 570h-58v-570h-76v73q-22 -36 -67 -61q-43 -25 -92 -25q-89 0 -138 78q-51 78 -51 197q0 112 53 186q52 73 140 73q96 0 155 -78v127h-142v70h142v49h76v-49h58v-70zM419 367q-55 88 -132 88q-63 0 -99 -56q-37 -55 -37 -141q0 -87 35 -145q34 -58 94 -58q30 0 58 16
q30 16 55 47q26 32 26 38v211z" />
    <glyph glyph-name="Emacron" unicode="&#x112;" 
d="M485 0h-360v689h357v-70h-277v-213h266v-70h-266v-266h280v-70zM465 777h-331v63h331v-63z" />
    <glyph glyph-name="emacron" unicode="&#x113;" 
d="M512 252h-349q0 -86 50 -142q49 -57 123 -57q71 0 143 25l13 -61q-68 -30 -157 -30q-112 0 -182 73t-70 196q0 121 63 193q61 72 160 72q89 0 147 -67q59 -68 59 -178v-24zM429 314q0 61 -37 101t-83 40q-59 0 -98 -39q-38 -38 -43 -102h261zM467 596h-331v63h331v-63z
" />
    <glyph glyph-name="Ebreve" unicode="&#x114;" 
d="M485 0h-360v689h357v-70h-277v-213h266v-70h-266v-266h280v-70zM457 878q-12 -63 -48 -96q-38 -33 -92 -33q-118 0 -143 129h67q14 -62 77 -62q57 0 71 62h68z" />
    <glyph glyph-name="ebreve" unicode="&#x115;" 
d="M512 252h-349q0 -86 50 -142q49 -57 123 -57q71 0 143 25l13 -61q-68 -30 -157 -30q-112 0 -182 73t-70 196q0 121 63 193q61 72 160 72q89 0 147 -67q59 -68 59 -178v-24zM429 314q0 61 -37 101t-83 40q-59 0 -98 -39q-38 -38 -43 -102h261zM448 698q-12 -63 -48 -96
q-38 -33 -92 -33q-118 0 -143 129h67q14 -62 77 -62q57 0 71 62h68z" />
    <glyph glyph-name="Edotaccent" unicode="&#x116;" 
d="M485 0h-360v689h357v-70h-277v-213h266v-70h-266v-266h280v-70zM257 806q0 22 15 37.5t37 15.5t37.5 -15.5t15.5 -37.5t-15.5 -37t-37.5 -15t-37 15t-15 37z" />
    <glyph glyph-name="edotaccent" unicode="&#x117;" 
d="M512 252h-349q0 -86 50 -142q49 -57 123 -57q71 0 143 25l13 -61q-68 -30 -157 -30q-112 0 -182 73t-70 196q0 121 63 193q61 72 160 72q89 0 147 -67q59 -68 59 -178v-24zM429 314q0 61 -37 101t-83 40q-59 0 -98 -39q-38 -38 -43 -102h261zM247 625q0 22 15 37.5
t37 15.5t37.5 -15.5t15.5 -37.5t-15.5 -37t-37.5 -15t-37 15t-15 37z" />
    <glyph glyph-name="Eogonek" unicode="&#x118;" 
d="M512 -163q-35 -16 -73 -16q-45 0 -73 25t-28 65q0 43 44 89h-257v689h357v-70h-277v-213h266v-70h-266v-266h280v-70h-53q-35 -44 -35 -69q0 -62 60 -62q16 0 55 11v-43z" />
    <glyph glyph-name="eogonek" unicode="&#x119;" 
d="M515 -163q-35 -16 -73 -16q-45 0 -73 25t-28 65q0 39 33 78q-9 -1 -19 -1.5t-20 -0.5q-112 0 -182 73t-70 196q0 121 63 193q61 72 160 72q89 0 147 -67q59 -68 59 -178v-24h-349q0 -86 50 -142q49 -57 123 -57q71 0 143 25l13 -61q-14 -6 -28.5 -11t-30.5 -8
q-33 -42 -33 -67q0 -62 60 -62q16 0 55 11v-43zM429 314q0 61 -37 101t-83 40q-59 0 -98 -39q-38 -38 -43 -102h261z" />
    <glyph glyph-name="Ecaron" unicode="&#x11a;" 
d="M485 0h-360v689h357v-70h-277v-213h266v-70h-266v-266h280v-70zM477 896l-97 -147h-110l-97 147h55l97 -94l97 94h55z" />
    <glyph glyph-name="ecaron" unicode="&#x11b;" 
d="M512 252h-349q0 -86 50 -142q49 -57 123 -57q71 0 143 25l13 -61q-68 -30 -157 -30q-112 0 -182 73t-70 196q0 121 63 193q61 72 160 72q89 0 147 -67q59 -68 59 -178v-24zM429 314q0 61 -37 101t-83 40q-59 0 -98 -39q-38 -38 -43 -102h261zM460 716l-97 -147h-110
l-97 147h55l97 -94l97 94h55z" />
    <glyph glyph-name="Gcircumflex" unicode="&#x11c;" 
d="M522 49q-85 -62 -187 -62q-134 0 -203 91q-70 91 -70 266q0 170 67 264t206 94q25 0 49.5 -2.5t49.5 -9.5q46 -11 78 -34l-26 -63q-69 39 -151 39q-95 0 -141 -69q-47 -71 -47 -219q0 -287 188 -287q71 0 107 30v170h-124v69h204v-277zM485 749h-55l-97 94l-97 -94h-55
l97 147h110z" />
    <glyph glyph-name="gcircumflex" unicode="&#x11d;" 
d="M246 192q-71 -35 -71 -61q0 -13 17 -24q18 -11 44 -10l171 5q59 1 95 -30q34 -30 34 -84q0 -87 -77 -138t-180 -51q-85 0 -138 35q-54 36 -54 92q0 61 83 103q-69 31 -69 79q0 53 89 100q-41 26 -63 65q-22 38 -22 83q0 72 49 118t122 46q54 0 95 -22l151 23v-74h-97
q22 -38 22 -91q0 -69 -48 -117q-50 -48 -123 -48h-15.5t-14.5 1zM276 250q42 0 69 29q26 29 26 76q0 48 -26 77q-25 28 -69 28q-41 0 -68 -29q-28 -28 -28 -76q0 -45 28 -75t68 -30zM279 -142q75 0 128 33q53 35 53 83q0 51 -75 51q-25 0 -86 -3q-20 -1 -35 -1.5t-26 -0.5
q-10 0 -33 -17q-24 -19 -35 -36q-12 -18 -12 -37q0 -30 34 -51q33 -21 87 -21zM435 569h-55l-97 94l-97 -94h-55l97 147h110z" />
    <glyph glyph-name="Gbreve" unicode="&#x11e;" 
d="M522 49q-85 -62 -187 -62q-134 0 -203 91q-70 91 -70 266q0 170 67 264t206 94q25 0 49.5 -2.5t49.5 -9.5q46 -11 78 -34l-26 -63q-69 39 -151 39q-95 0 -141 -69q-47 -71 -47 -219q0 -287 188 -287q71 0 107 30v170h-124v69h204v-277zM475 878q-12 -63 -48 -96
q-38 -33 -92 -33q-118 0 -143 129h67q14 -62 77 -62q57 0 71 62h68z" />
    <glyph glyph-name="gbreve" unicode="&#x11f;" 
d="M246 192q-71 -35 -71 -61q0 -13 17 -24q18 -11 44 -10l171 5q59 1 95 -30q34 -30 34 -84q0 -87 -77 -138t-180 -51q-85 0 -138 35q-54 36 -54 92q0 61 83 103q-69 31 -69 79q0 53 89 100q-41 26 -63 65q-22 38 -22 83q0 72 49 118t122 46q54 0 95 -22l151 23v-74h-97
q22 -38 22 -91q0 -69 -48 -117q-50 -48 -123 -48h-15.5t-14.5 1zM276 250q42 0 69 29q26 29 26 76q0 48 -26 77q-25 28 -69 28q-41 0 -68 -29q-28 -28 -28 -76q0 -45 28 -75t68 -30zM279 -142q75 0 128 33q53 35 53 83q0 51 -75 51q-25 0 -86 -3q-20 -1 -35 -1.5t-26 -0.5
q-10 0 -33 -17q-24 -19 -35 -36q-12 -18 -12 -37q0 -30 34 -51q33 -21 87 -21zM425 698q-12 -63 -48 -96q-38 -33 -92 -33q-118 0 -143 129h67q14 -62 77 -62q57 0 71 62h68z" />
    <glyph glyph-name="Gdotaccent" unicode="&#x120;" 
d="M522 49q-85 -62 -187 -62q-134 0 -203 91q-70 91 -70 266q0 170 67 264t206 94q25 0 49.5 -2.5t49.5 -9.5q46 -11 78 -34l-26 -63q-69 39 -151 39q-95 0 -141 -69q-47 -71 -47 -219q0 -287 188 -287q71 0 107 30v170h-124v69h204v-277zM278 807q0 22 15 37.5t37 15.5
t37.5 -15.5t15.5 -37.5t-15.5 -37t-37.5 -15t-37 15t-15 37z" />
    <glyph glyph-name="gdotaccent" unicode="&#x121;" 
d="M246 192q-71 -35 -71 -61q0 -13 17 -24q18 -11 44 -10l171 5q59 1 95 -30q34 -30 34 -84q0 -87 -77 -138t-180 -51q-85 0 -138 35q-54 36 -54 92q0 61 83 103q-69 31 -69 79q0 53 89 100q-41 26 -63 65q-22 38 -22 83q0 72 49 118t122 46q54 0 95 -22l151 23v-74h-97
q22 -38 22 -91q0 -69 -48 -117q-50 -48 -123 -48h-15.5t-14.5 1zM276 250q42 0 69 29q26 29 26 76q0 48 -26 77q-25 28 -69 28q-41 0 -68 -29q-28 -28 -28 -76q0 -45 28 -75t68 -30zM279 -142q75 0 128 33q53 35 53 83q0 51 -75 51q-25 0 -86 -3q-20 -1 -35 -1.5t-26 -0.5
q-10 0 -33 -17q-24 -19 -35 -36q-12 -18 -12 -37q0 -30 34 -51q33 -21 87 -21zM222 625q0 22 15 37.5t37 15.5t37.5 -15.5t15.5 -37.5t-15.5 -37t-37.5 -15t-37 15t-15 37z" />
    <glyph glyph-name="Gcommaaccent" unicode="&#x122;" 
d="M522 49q-85 -62 -187 -62q-134 0 -203 91q-70 91 -70 266q0 170 67 264t206 94q25 0 49.5 -2.5t49.5 -9.5q46 -11 78 -34l-26 -63q-69 39 -151 39q-95 0 -141 -69q-47 -71 -47 -219q0 -287 188 -287q71 0 107 30v170h-124v69h204v-277zM329 -130q-21 3 -32 14
q-13 15 -13 28q0 17 12 29q14 11 31 11q23 0 35 -15q15 -15 15 -36q0 -65 -79 -102l-14 24q45 19 45 47z" />
    <glyph glyph-name="gcommaaccent" unicode="&#x123;" 
d="M246 192q-71 -35 -71 -61q0 -13 17 -24q18 -11 44 -10l171 5q59 1 95 -30q34 -30 34 -84q0 -87 -77 -138t-180 -51q-85 0 -138 35q-54 36 -54 92q0 61 83 103q-69 31 -69 79q0 53 89 100q-41 26 -63 65q-22 38 -22 83q0 72 49 118t122 46q54 0 95 -22l151 23v-74h-97
q22 -38 22 -91q0 -69 -48 -117q-50 -48 -123 -48h-15.5t-14.5 1zM276 250q42 0 69 29q26 29 26 76q0 48 -26 77q-25 28 -69 28q-41 0 -68 -29q-28 -28 -28 -76q0 -45 28 -75t68 -30zM279 -142q75 0 128 33q53 35 53 83q0 51 -75 51q-25 0 -86 -3q-20 -1 -35 -1.5t-26 -0.5
q-10 0 -33 -17q-24 -19 -35 -36q-12 -18 -12 -37q0 -30 34 -51q33 -21 87 -21zM273 649q21 -3 32 -14q13 -15 13 -28q0 -17 -12 -29q-14 -11 -31 -11q-23 0 -35 15q-15 15 -15 36q0 65 79 102l14 -24q-45 -20 -45 -47z" />
    <glyph glyph-name="Hcircumflex" unicode="&#x124;" 
d="M498 0h-80v342h-236v-342h-80v689h80v-277h236v277h80v-689zM450 749h-55l-97 94l-97 -94h-55l97 147h110z" />
    <glyph glyph-name="hcircumflex" unicode="&#x125;" 
d="M497 0h-76v326q0 68 -22 99q-23 30 -68 30q-71 0 -150 -87v-368h-76v689h76v-255q82 87 173 87q143 0 143 -173v-348zM302 749h-55l-97 94l-97 -94h-55l97 147h110z" />
    <glyph glyph-name="Hbar" unicode="&#x126;" 
d="M553 505h-55v-505h-80v342h-236v-342h-80v505h-55v70h55v114h80v-114h236v114h80v-114h55v-70zM418 412v93h-236v-93h236z" />
    <glyph glyph-name="hbar" unicode="&#x127;" 
d="M317 568h-136v-134q82 87 173 87q143 0 143 -173v-348h-76v326q0 68 -22 99q-23 30 -68 30q-71 0 -150 -87v-368h-76v568h-72v70h72v51h76v-51h136v-70z" />
    <glyph glyph-name="Itilde" unicode="&#x128;" 
d="M453 0h-313v70h119v549h-119v70h313v-70h-114v-549h114v-70zM464 871q-16 -112 -94 -112q-28 0 -85 28q-51 23 -69 23q-19 0 -33 -14q-14 -15 -18 -37h-41q16 112 94 112q28 0 85 -28q51 -23 69 -23q19 0 33 15q13 13 18 36h41z" />
    <glyph glyph-name="itilde" unicode="&#x129;" 
d="M370 0h-76v443h-150v66h226v-509zM438 690q-16 -112 -94 -112q-28 0 -85 28q-51 23 -69 23q-19 0 -33 -14q-14 -15 -18 -37h-41q16 112 94 112q28 0 85 -28q51 -23 69 -23q19 0 33 15q13 13 18 36h41z" />
    <glyph glyph-name="Imacron" unicode="&#x12a;" 
d="M453 0h-313v70h119v549h-119v70h313v-70h-114v-549h114v-70zM459 777h-331v63h331v-63z" />
    <glyph glyph-name="imacron" unicode="&#x12b;" 
d="M370 0h-76v443h-150v66h226v-509zM436 596h-331v63h331v-63z" />
    <glyph glyph-name="Ibreve" unicode="&#x12c;" 
d="M453 0h-313v70h119v549h-119v70h313v-70h-114v-549h114v-70zM440 878q-12 -63 -48 -96q-38 -33 -92 -33q-118 0 -143 129h67q14 -62 77 -62q57 0 71 62h68z" />
    <glyph glyph-name="ibreve" unicode="&#x12d;" 
d="M370 0h-76v443h-150v66h226v-509zM415 698q-12 -63 -48 -96q-38 -33 -92 -33q-118 0 -143 129h67q14 -62 77 -62q57 0 71 62h68z" />
    <glyph glyph-name="Iogonek" unicode="&#x12e;" 
d="M402 -163q-35 -16 -73 -16q-45 0 -73 25t-28 65q0 43 44 89h-132v70h119v549h-119v70h313v-70h-114v-549h114v-70h-131q-35 -44 -35 -69q0 -62 60 -62q16 0 55 11v-43z" />
    <glyph glyph-name="iogonek" unicode="&#x12f;" 
d="M434 -163q-35 -16 -73 -16q-45 0 -73 25t-28 65q0 43 44 89h-10v443h-150v66h226v-509h-16q-35 -44 -35 -69q0 -62 60 -62q16 0 55 11v-43zM333 701q20 0 37 -15q15 -17 15 -37q0 -23 -15 -38t-37 -15q-20 0 -35 16q-16 16 -16 37t16 37q15 15 35 15z" />
    <glyph glyph-name="Idotaccent" unicode="&#x130;" 
d="M453 0h-313v70h119v549h-119v70h313v-70h-114v-549h114v-70zM244 807q0 22 15 37.5t37 15.5t37.5 -15.5t15.5 -37.5t-15.5 -37t-37.5 -15t-37 15t-15 37z" />
    <glyph glyph-name="dotlessi" unicode="&#x131;" 
d="M370 0h-76v443h-150v66h226v-509z" />
    <glyph glyph-name="IJ" unicode="&#x132;" 
d="M84 0v688h80v-688h-80zM521 183q0 -96 -49 -145q-25 -26 -57 -38.5t-80 -12.5q-42 0 -73 9t-66 26l24 64q29 -14 54.5 -21.5t60.5 -7.5q31 0 48 8t31 24q27 31 27 100v500h80v-506z" />
    <glyph glyph-name="ij" unicode="&#x133;" 
d="M209 701q20 0 37 -15q15 -17 15 -37q0 -23 -15 -38t-37 -15q-20 0 -35 16q-16 16 -16 37t16 37q15 15 35 15zM246 0h-76v443h-127v66h203v-509zM496 701q20 0 37 -15q15 -17 15 -37q0 -23 -15 -38t-37 -15q-20 0 -35 16q-16 16 -16 37t16 37q15 15 35 15zM533 -26
q0 -96 -33 -136q-33 -39 -115 -39q-51 0 -117 20l20 62q52 -16 97 -16q42 0 57 23q15 22 15 94v461h-128v66h204v-535z" />
    <glyph glyph-name="Jcircumflex" unicode="&#x134;" 
d="M423 183q0 -96 -49 -145q-50 -51 -146 -51q-82 0 -152 35l24 64q60 -29 128 -29q61 0 88 32q27 31 27 100v500h80v-506zM465 749h-55l-97 94l-97 -94h-55l97 147h110z" />
    <glyph glyph-name="jcircumflex" unicode="&#x135;" 
d="M370 -26q0 -96 -33 -136q-33 -39 -115 -39q-51 0 -117 20l20 62q52 -16 97 -16q42 0 57 23q15 22 15 94v461h-150v66h226v-535zM418 569h-55l-97 94l-97 -94h-55l97 147h110z" />
    <glyph glyph-name="Kcommaaccent" unicode="&#x136;" 
d="M589 0h-101l-233 338l-73 -79v-259h-80v689h80v-330l306 330h92l-269 -291zM322 -130q-21 3 -32 14q-13 15 -13 28q0 17 12 29q14 11 31 11q23 0 35 -15q15 -15 15 -36q0 -65 -79 -102l-14 24q45 19 45 47z" />
    <glyph glyph-name="kcommaaccent" unicode="&#x137;" 
d="M547 0h-100l-216 253l-50 -43v-210h-76v689h76v-395l239 215h97l-232 -208zM315 -130q-21 3 -32 14q-13 15 -13 28q0 17 12 29q14 11 31 11q23 0 35 -15q15 -15 15 -36q0 -65 -79 -102l-14 24q45 19 45 47z" />
    <glyph glyph-name="kgreenlandic" unicode="&#x138;" 
d="M547 0h-100l-216 253l-50 -43v-210h-76v511h76v-217l239 215h97l-232 -208z" />
    <glyph glyph-name="Lacute" unicode="&#x139;" 
d="M500 0h-375v689h80v-619h295v-70zM403 896l-152 -147h-55l97 147h110z" />
    <glyph glyph-name="lacute" unicode="&#x13a;" 
d="M460 0h-208v623h-133v66h209v-623h132v-66zM420 896l-152 -147h-55l97 147h110z" />
    <glyph glyph-name="Lcommaaccent" unicode="&#x13b;" 
d="M500 0h-375v689h80v-619h295v-70zM316 -130q-21 3 -32 14q-13 15 -13 28q0 17 12 29q14 11 31 11q23 0 35 -15q15 -15 15 -36q0 -65 -79 -102l-14 24q45 19 45 47z" />
    <glyph glyph-name="lcommaaccent" unicode="&#x13c;" 
d="M460 0h-208v623h-133v66h209v-623h132v-66zM295 -130q-21 3 -32 14q-13 15 -13 28q0 17 12 29q14 11 31 11q23 0 35 -15q15 -15 15 -36q0 -65 -79 -102l-14 24q45 19 45 47z" />
    <glyph glyph-name="Lcaron" unicode="&#x13d;" 
d="M500 0h-375v689h80v-619h295v-70zM361 572q-23 3 -38 21t-15 41q0 25 15 42t36 17q24 0 42 -22q18 -23 18 -54q0 -96 -95 -149l-17 35q54 30 54 69z" />
    <glyph glyph-name="lcaron" unicode="&#x13e;" 
d="M459 0h-208v623h-133v66h209v-623h132v-66zM442 571q-23 3 -38 21t-15 41q0 25 15 42t36 17q24 0 42 -22q18 -23 18 -54q0 -96 -95 -149l-17 35q54 30 54 69z" />
    <glyph glyph-name="Ldot" unicode="&#x13f;" 
d="M500 0h-375v689h80v-619h295v-70zM289 397q0 22 15 37.5t37 15.5t37.5 -15.5t15.5 -37.5t-15.5 -37t-37.5 -15t-37 15t-15 37z" />
    <glyph glyph-name="ldot" unicode="&#x140;" 
d="M454 0h-208v623h-133v66h209v-623h132v-66zM395 386q0 22 15 37.5t37 15.5t37.5 -15.5t15.5 -37.5t-15.5 -37t-37.5 -15t-37 15t-15 37z" />
    <glyph glyph-name="Lslash" unicode="&#x141;" 
d="M329 401l-124 -94v-237h295v-70h-375v246l-83 -62v76l83 62v367h80v-306l124 94v-76z" />
    <glyph glyph-name="lslash" unicode="&#x142;" 
d="M413 393l-85 -64v-263h132v-66h-208v274l-85 -62v76l85 60v275h-133v66h209v-286l85 66v-76z" />
    <glyph glyph-name="Nacute" unicode="&#x143;" 
d="M508 0h-89l-247 544v-544h-80v689h89l248 -539v539h79v-689zM478 896l-152 -147h-55l97 147h110z" />
    <glyph glyph-name="nacute" unicode="&#x144;" 
d="M497 0h-76v326q0 68 -22 99q-23 30 -68 30q-71 0 -150 -87v-368h-76v509h76v-75q82 87 173 87q143 0 143 -173v-348zM462 716l-152 -147h-55l97 147h110z" />
    <glyph glyph-name="Ncommaaccent" unicode="&#x145;" 
d="M508 0h-89l-247 544v-544h-80v689h89l248 -539v539h79v-689zM298 -130q-21 3 -32 14q-13 15 -13 28q0 17 12 29q14 11 31 11q23 0 35 -15q15 -15 15 -36q0 -65 -79 -102l-14 24q45 19 45 47z" />
    <glyph glyph-name="ncommaaccent" unicode="&#x146;" 
d="M497 0h-76v326q0 68 -22 99q-23 30 -68 30q-71 0 -150 -87v-368h-76v509h76v-75q82 87 173 87q143 0 143 -173v-348zM309 -130q-21 3 -32 14q-13 15 -13 28q0 17 12 29q14 11 31 11q23 0 35 -15q15 -15 15 -36q0 -65 -79 -102l-14 24q45 19 45 47z" />
    <glyph glyph-name="Ncaron" unicode="&#x147;" 
d="M508 0h-89l-247 544v-544h-80v689h89l248 -539v539h79v-689zM458 896l-97 -147h-110l-97 147h55l97 -94l97 94h55z" />
    <glyph glyph-name="ncaron" unicode="&#x148;" 
d="M497 0h-76v326q0 68 -22 99q-23 30 -68 30q-71 0 -150 -87v-368h-76v509h76v-75q82 87 173 87q143 0 143 -173v-348zM469 716l-97 -147h-110l-97 147h55l97 -94l97 94h55z" />
    <glyph glyph-name="napostrophe" unicode="&#x149;" 
d="M497 0h-76v326q0 68 -22 99q-23 30 -68 30q-71 0 -150 -87v-368h-76v509h76v-75q82 87 173 87q143 0 143 -173v-348zM36 575q-23 3 -38 21t-15 41q0 25 15 42t36 17q24 0 42 -22q18 -23 18 -54q0 -96 -95 -149l-17 35q54 30 54 69z" />
    <glyph glyph-name="Eng" unicode="&#x14a;" 
d="M509 27q0 -53 -4.5 -87t-23.5 -64q-23 -35 -62 -56t-111 -21q-15 0 -35 2.5t-40 7.5t-39 11t-32 14l24 64q24 -10 52.5 -20t72.5 -9q28 1 50 7t37 21t23 40t8 63h-10l-247 544v-544h-80v689h89l248 -539v539h79z" />
    <glyph glyph-name="eng" unicode="&#x14b;" 
d="M498 -26q0 -96 -33 -136q-33 -39 -115 -39q-51 0 -117 20l20 62q52 -16 97 -16q42 0 57 23q15 22 15 94l-1 344q0 68 -22 99q-23 30 -68 30q-71 0 -150 -87v-368h-76v509h76v-75q82 87 173 87q143 0 143 -173z" />
    <glyph glyph-name="Omacron" unicode="&#x14c;" 
d="M299 702q116 0 177 -91q60 -92 60 -267q0 -174 -60 -265q-62 -92 -177 -92q-114 0 -176 92q-61 91 -61 265q0 176 61 267q60 91 176 91zM299 57q152 0 152 287q0 288 -152 288q-74 0 -113 -74q-39 -75 -39 -214q0 -140 39 -213q38 -74 113 -74zM469 777h-331v63h331v-63z
" />
    <glyph glyph-name="omacron" unicode="&#x14d;" 
d="M300 521q106 0 167 -73q62 -74 62 -193q0 -120 -62 -194t-167 -74t-167 74t-62 194q0 119 62 193q61 73 167 73zM300 53q68 0 109 59q40 58 40 142q0 90 -39 145q-39 56 -110 56t-110 -56t-39 -145q0 -85 40 -143q39 -58 109 -58zM470 596h-331v63h331v-63z" />
    <glyph glyph-name="Obreve" unicode="&#x14e;" 
d="M299 702q116 0 177 -91q60 -92 60 -267q0 -174 -60 -265q-62 -92 -177 -92q-114 0 -176 92q-61 91 -61 265q0 176 61 267q60 91 176 91zM299 57q152 0 152 287q0 288 -152 288q-74 0 -113 -74q-39 -75 -39 -214q0 -140 39 -213q38 -74 113 -74zM440 878q-12 -63 -48 -96
q-38 -33 -92 -33q-118 0 -143 129h67q14 -62 77 -62q57 0 71 62h68z" />
    <glyph glyph-name="obreve" unicode="&#x14f;" 
d="M300 521q106 0 167 -73q62 -74 62 -193q0 -120 -62 -194t-167 -74t-167 74t-62 194q0 119 62 193q61 73 167 73zM300 53q68 0 109 59q40 58 40 142q0 90 -39 145q-39 56 -110 56t-110 -56t-39 -145q0 -85 40 -143q39 -58 109 -58zM441 698q-12 -63 -48 -96
q-38 -33 -92 -33q-118 0 -143 129h67q14 -62 77 -62q57 0 71 62h68z" />
    <glyph glyph-name="Ohungarumlaut" unicode="&#x150;" 
d="M299 702q116 0 177 -91q60 -92 60 -267q0 -174 -60 -265q-62 -92 -177 -92q-114 0 -176 92q-61 91 -61 265q0 176 61 267q60 91 176 91zM299 57q152 0 152 287q0 288 -152 288q-74 0 -113 -74q-39 -75 -39 -214q0 -140 39 -213q38 -74 113 -74zM508 896l-112 -147h-55
l67 147h100zM348 896l-112 -147h-55l67 147h100z" />
    <glyph glyph-name="ohungarumlaut" unicode="&#x151;" 
d="M300 521q106 0 167 -73q62 -74 62 -193q0 -120 -62 -194t-167 -74t-167 74t-62 194q0 119 62 193q61 73 167 73zM300 53q68 0 109 59q40 58 40 142q0 90 -39 145q-39 56 -110 56t-110 -56t-39 -145q0 -85 40 -143q39 -58 109 -58zM504 716l-112 -147h-55l67 147h100z
M344 716l-112 -147h-55l67 147h100z" />
    <glyph glyph-name="OE" unicode="&#x152;" 
d="M541 0h-250q-105 0 -167 95t-62 249q0 158 62 252q61 93 175 93h239v-70h-172v-214h161v-68h-161v-267h175v-70zM291 618q-74 0 -109 -65t-35 -209q0 -65 9.5 -115t26.5 -86q36 -73 108 -73v548z" />
    <glyph glyph-name="oe" unicode="&#x153;" 
d="M579 17q-63 -30 -126 -30q-72 0 -118 43q-46 -43 -110 -43q-87 0 -143 77t-56 190q0 118 54 193q54 74 145 74q62 0 109 -35q38 35 94 35q67 0 109 -61q41 -62 41 -177v-31h-238v-9q0 -91 29 -141q28 -49 84 -49q55 0 115 25zM493 314q0 66 -17 105q-16 37 -48 37
q-82 0 -89 -142h154zM300 79q-38 78 -38 191q0 93 30 158q-35 27 -67 27q-119 0 -119 -201q0 -97 31 -149q30 -52 88 -52q41 0 75 26z" />
    <glyph glyph-name="Racute" unicode="&#x154;" 
d="M573 0h-100l-202 313h-89v-313h-80v689h195q97 0 155 -47q57 -48 57 -133q0 -62 -41 -112q-42 -49 -115 -67zM182 383h101q63 0 104 35q39 34 39 86q0 115 -141 115h-103v-236zM429 896l-152 -147h-55l97 147h110z" />
    <glyph glyph-name="racute" unicode="&#x155;" 
d="M474 422q-48 22 -87 22q-34 0 -65 -19q-32 -19 -60 -56q-27 -36 -27 -40v-329h-76v509h76v-103q61 115 158 115q57 0 112 -26zM449 716l-152 -147h-55l97 147h110z" />
    <glyph glyph-name="Rcommaaccent" unicode="&#x156;" 
d="M573 0h-100l-202 313h-89v-313h-80v689h195q97 0 155 -47q57 -48 57 -133q0 -62 -41 -112q-42 -49 -115 -67zM182 383h101q63 0 104 35q39 34 39 86q0 115 -141 115h-103v-236zM312 -130q-21 3 -32 14q-13 15 -13 28q0 17 12 29q14 11 31 11q23 0 35 -15q15 -15 15 -36
q0 -65 -79 -102l-14 24q45 19 45 47z" />
    <glyph glyph-name="rcommaaccent" unicode="&#x157;" 
d="M474 422q-48 22 -87 22q-34 0 -65 -19q-32 -19 -60 -56q-27 -36 -27 -40v-329h-76v509h76v-103q61 115 158 115q57 0 112 -26zM290 -130q-21 3 -32 14q-13 15 -13 28q0 17 12 29q14 11 31 11q23 0 35 -15q15 -15 15 -36q0 -65 -79 -102l-14 24q45 19 45 47z" />
    <glyph glyph-name="Rcaron" unicode="&#x158;" 
d="M573 0h-100l-202 313h-89v-313h-80v689h195q97 0 155 -47q57 -48 57 -133q0 -62 -41 -112q-42 -49 -115 -67zM182 383h101q63 0 104 35q39 34 39 86q0 115 -141 115h-103v-236zM445 896l-97 -147h-110l-97 147h55l97 -94l97 94h55z" />
    <glyph glyph-name="rcaron" unicode="&#x159;" 
d="M474 422q-48 22 -87 22q-34 0 -65 -19q-32 -19 -60 -56q-27 -36 -27 -40v-329h-76v509h76v-103q61 115 158 115q57 0 112 -26zM458 716l-97 -147h-110l-97 147h55l97 -94l97 94h55z" />
    <glyph glyph-name="Sacute" unicode="&#x15a;" 
d="M447 613q-62 21 -117 21q-63 0 -101 -28q-40 -28 -40 -82q0 -64 103 -110q38 -17 63 -29t38 -19q24 -13 50 -38q26 -24 41 -56q8 -17 11.5 -35.5t3.5 -38.5q0 -100 -67 -155q-68 -56 -160 -56q-88 0 -156 35l17 69q78 -36 137 -36q68 0 110 36q41 35 41 97q0 46 -27 78
q-28 32 -99 65q-37 17 -61 28.5t-35 18.5q-22 12 -43 34q-21 21 -33 50q-5 14 -8.5 28.5t-3.5 30.5q0 85 62 133q61 48 155 48q69 0 137 -21zM466 896l-152 -147h-55l97 147h110z" />
    <glyph glyph-name="sacute" unicode="&#x15b;" 
d="M444 436q-65 21 -121 21q-61 0 -98 -20q-36 -21 -36 -56q0 -21 17 -38q18 -18 66 -31l73 -21q25 -7 45.5 -15.5t36.5 -18.5q30 -19 47 -48q16 -28 16 -65q0 -73 -61 -115q-62 -42 -155 -42q-95 0 -155 28l15 66q64 -30 137 -30q62 0 103 24q40 22 40 62q0 28 -19 48
q-21 20 -94 43q-29 9 -50.5 15.5t-35.5 11.5q-28 9 -52 27q-22 15 -36 42q-13 26 -13 54q0 66 58 105q58 38 152 38q62 0 137 -21zM450 716l-152 -147h-55l97 147h110z" />
    <glyph glyph-name="Scircumflex" unicode="&#x15c;" 
d="M447 613q-62 21 -117 21q-63 0 -101 -28q-40 -28 -40 -82q0 -64 103 -110q38 -17 63 -29t38 -19q24 -13 50 -38q26 -24 41 -56q8 -17 11.5 -35.5t3.5 -38.5q0 -100 -67 -155q-68 -56 -160 -56q-88 0 -156 35l17 69q78 -36 137 -36q68 0 110 36q41 35 41 97q0 46 -27 78
q-28 32 -99 65q-37 17 -61 28.5t-35 18.5q-22 12 -43 34q-21 21 -33 50q-5 14 -8.5 28.5t-3.5 30.5q0 85 62 133q61 48 155 48q69 0 137 -21zM484 749h-55l-97 94l-97 -94h-55l97 147h110z" />
    <glyph glyph-name="scircumflex" unicode="&#x15d;" 
d="M444 436q-65 21 -121 21q-61 0 -98 -20q-36 -21 -36 -56q0 -21 17 -38q18 -18 66 -31l73 -21q25 -7 45.5 -15.5t36.5 -18.5q30 -19 47 -48q16 -28 16 -65q0 -73 -61 -115q-62 -42 -155 -42q-95 0 -155 28l15 66q64 -30 137 -30q62 0 103 24q40 22 40 62q0 28 -19 48
q-21 20 -94 43q-29 9 -50.5 15.5t-35.5 11.5q-28 9 -52 27q-22 15 -36 42q-13 26 -13 54q0 66 58 105q58 38 152 38q62 0 137 -21zM473 569h-55l-97 94l-97 -94h-55l97 147h110z" />
    <glyph glyph-name="Scedilla" unicode="&#x15e;" 
d="M447 613q-62 21 -117 21q-63 0 -101 -28q-40 -28 -40 -82q0 -64 103 -110q38 -17 63 -29t38 -19q24 -13 50 -38q26 -24 41 -56q8 -17 11.5 -35.5t3.5 -38.5q0 -100 -67 -155q-56 -47 -133 -55l-4 -14q58 -13 58 -61q0 -42 -31 -67t-79 -25q-21 0 -40 3v47q8 -1 15 -1.5
t12 -0.5q26 0 46 11q18 10 18 25q0 32 -62 32l17 51q-38 2 -71 10.5t-62 23.5l17 69q78 -36 137 -36q68 0 110 36q41 35 41 97q0 46 -27 78q-28 32 -99 65q-37 17 -61 28.5t-35 18.5q-22 12 -43 34q-21 21 -33 50q-5 14 -8.5 28.5t-3.5 30.5q0 85 62 133q61 48 155 48
q69 0 137 -21z" />
    <glyph glyph-name="scedilla" unicode="&#x15f;" 
d="M444 436q-65 21 -121 21q-61 0 -98 -20q-36 -21 -36 -56q0 -21 17 -38q18 -18 66 -31l73 -21q25 -7 45.5 -15.5t36.5 -18.5q30 -19 47 -48q16 -28 16 -65q0 -73 -61 -115q-51 -35 -126 -41l-4 -14q58 -13 58 -61q0 -42 -31 -67t-79 -25q-21 0 -40 3v47q8 -1 15 -1.5
t12 -0.5q26 0 46 11q18 10 18 25q0 32 -62 32l17 50q-81 3 -134 28l15 66q64 -30 137 -30q62 0 103 24q40 22 40 62q0 28 -19 48q-21 20 -94 43l-86 27q-28 9 -52 27q-22 15 -36 42q-13 26 -13 54q0 66 58 105q58 38 152 38q62 0 137 -21z" />
    <glyph glyph-name="Scaron" unicode="&#x160;" 
d="M447 613q-62 21 -117 21q-63 0 -101 -28q-40 -28 -40 -82q0 -64 103 -110q38 -17 63 -29t38 -19q24 -13 50 -38q26 -24 41 -56q8 -17 11.5 -35.5t3.5 -38.5q0 -100 -67 -155q-68 -56 -160 -56q-88 0 -156 35l17 69q78 -36 137 -36q68 0 110 36q41 35 41 97q0 46 -27 78
q-28 32 -99 65q-37 17 -61 28.5t-35 18.5q-22 12 -43 34q-21 21 -33 50q-5 14 -8.5 28.5t-3.5 30.5q0 85 62 133q61 48 155 48q69 0 137 -21zM459 897l-97 -147h-110l-97 147h55l97 -94l97 94h55z" />
    <glyph glyph-name="scaron" unicode="&#x161;" 
d="M444 436q-65 21 -121 21q-61 0 -98 -20q-36 -21 -36 -56q0 -21 17 -38q18 -18 66 -31l73 -21q25 -7 45.5 -15.5t36.5 -18.5q30 -19 47 -48q16 -28 16 -65q0 -73 -61 -115q-62 -42 -155 -42q-95 0 -155 28l15 66q64 -30 137 -30q62 0 103 24q40 22 40 62q0 28 -19 48
q-21 20 -94 43q-29 9 -50.5 15.5t-35.5 11.5q-28 9 -52 27q-22 15 -36 42q-13 26 -13 54q0 66 58 105q58 38 152 38q62 0 137 -21zM452 716l-97 -147h-110l-97 147h55l97 -94l97 94h55z" />
    <glyph glyph-name="Tcommaaccent" unicode="&#x162;" 
d="M553 624h-212v-624h-80v624h-213v65h505v-65zM299 -130q-21 3 -32 14q-13 15 -13 28q0 17 12 29q14 11 31 11q23 0 35 -15q15 -15 15 -36q0 -65 -79 -102l-14 24q45 19 45 47z" />
    <glyph glyph-name="tcommaaccent" unicode="&#x163;" 
d="M502 23q-78 -35 -151 -35q-136 0 -136 144v311h-98v66h98v139h74v-139h173v-66h-173v-291q0 -47 21 -72q20 -26 55 -26q64 0 124 28zM293 -130q-21 3 -32 14q-13 15 -13 28q0 17 12 29q14 11 31 11q23 0 35 -15q15 -15 15 -36q0 -65 -79 -102l-14 24q45 19 45 47z" />
    <glyph glyph-name="Tcaron" unicode="&#x164;" 
d="M553 624h-212v-624h-80v624h-213v65h505v-65zM454 896l-97 -147h-110l-97 147h55l97 -94l97 94h55z" />
    <glyph glyph-name="tcaron" unicode="&#x165;" 
d="M453 23q-78 -35 -151 -35q-136 0 -136 144v311h-98v66h98v139h74v-139h173v-66h-173v-291q0 -47 21 -72q20 -26 55 -26q64 0 124 28zM519 581q-23 3 -38 21t-15 41q0 25 15 42t36 17q24 0 42 -22q18 -23 18 -54q0 -96 -95 -149l-17 35q54 30 54 69z" />
    <glyph glyph-name="Tbar" unicode="&#x166;" 
d="M466 326h-125v-326h-80v326h-127v70h127v228h-213v65h505v-65h-212v-228h125v-70z" />
    <glyph glyph-name="tbar" unicode="&#x167;" 
d="M428 266h-139v-114q0 -47 21 -72q20 -26 55 -26q64 0 124 28l13 -59q-78 -35 -151 -35q-136 0 -136 144v134h-90v70h90v107h-98v66h98v139h74v-139h173v-66h-173v-107h139v-70z" />
    <glyph glyph-name="Utilde" unicode="&#x168;" 
d="M498 217q0 -120 -48 -175q-49 -55 -148 -55q-200 0 -200 228v474h80v-467q0 -165 120 -165q59 0 88 39q28 38 28 127v466h80v-472zM467 871q-16 -112 -94 -112q-28 0 -85 28q-51 23 -69 23q-19 0 -33 -14q-14 -15 -18 -37h-41q16 112 94 112q28 0 85 -28q51 -23 69 -23
q19 0 33 15q13 13 18 36h41z" />
    <glyph glyph-name="utilde" unicode="&#x169;" 
d="M496 0h-76v75q-83 -87 -173 -87q-143 0 -143 173v348h76v-326q0 -66 21 -97q20 -32 69 -32q70 0 150 87v368h76v-509zM474 690q-16 -112 -94 -112q-28 0 -85 28q-51 23 -69 23q-19 0 -33 -14q-14 -15 -18 -37h-41q16 112 94 112q28 0 85 -28q51 -23 69 -23q19 0 33 15
q13 13 18 36h41z" />
    <glyph glyph-name="Umacron" unicode="&#x16a;" 
d="M498 217q0 -120 -48 -175q-49 -55 -148 -55q-200 0 -200 228v474h80v-467q0 -165 120 -165q59 0 88 39q28 38 28 127v466h80v-472zM464 777h-331v63h331v-63z" />
    <glyph glyph-name="umacron" unicode="&#x16b;" 
d="M496 0h-76v75q-83 -87 -173 -87q-143 0 -143 173v348h76v-326q0 -66 21 -97q20 -32 69 -32q70 0 150 87v368h76v-509zM464 596h-331v63h331v-63z" />
    <glyph glyph-name="Ubreve" unicode="&#x16c;" 
d="M498 217q0 -120 -48 -175q-49 -55 -148 -55q-200 0 -200 228v474h80v-467q0 -165 120 -165q59 0 88 39q28 38 28 127v466h80v-472zM439 878q-12 -63 -48 -96q-38 -33 -92 -33q-118 0 -143 129h67q14 -62 77 -62q57 0 71 62h68z" />
    <glyph glyph-name="ubreve" unicode="&#x16d;" 
d="M496 0h-76v75q-83 -87 -173 -87q-143 0 -143 173v348h76v-326q0 -66 21 -97q20 -32 69 -32q70 0 150 87v368h76v-509zM439 698q-12 -63 -48 -96q-38 -33 -92 -33q-118 0 -143 129h67q14 -62 77 -62q57 0 71 62h68z" />
    <glyph glyph-name="Uring" unicode="&#x16e;" 
d="M498 217q0 -120 -48 -175q-49 -55 -148 -55q-200 0 -200 228v474h80v-467q0 -165 120 -165q59 0 88 39q28 38 28 127v466h80v-472zM297 931q39 0 66 -27t27 -66q0 -38 -27 -65q-28 -28 -66 -28q-37 0 -65 28t-28 65q0 38 28 66q27 27 65 27zM297 783q22 0 39 17
q16 16 16 38q0 23 -16 39t-39 16q-22 0 -38 -16q-17 -17 -17 -39q0 -23 16 -39t39 -16z" />
    <glyph glyph-name="uring" unicode="&#x16f;" 
d="M496 0h-76v75q-83 -87 -173 -87q-143 0 -143 173v348h76v-326q0 -66 21 -97q20 -32 69 -32q70 0 150 87v368h76v-509zM305 756q39 0 66 -27t27 -66q0 -38 -27 -65q-28 -28 -66 -28q-37 0 -65 28t-28 65q0 38 28 66q27 27 65 27zM305 608q22 0 39 17q16 16 16 38
q0 23 -16 39t-39 16q-22 0 -38 -16q-17 -17 -17 -39q0 -23 16 -39t39 -16z" />
    <glyph glyph-name="Uhungarumlaut" unicode="&#x170;" 
d="M498 217q0 -120 -48 -175q-49 -55 -148 -55q-200 0 -200 228v474h80v-467q0 -165 120 -165q59 0 88 39q28 38 28 127v466h80v-472zM518 896l-112 -147h-55l67 147h100zM358 896l-112 -147h-55l67 147h100z" />
    <glyph glyph-name="uhungarumlaut" unicode="&#x171;" 
d="M496 0h-76v75q-83 -87 -173 -87q-143 0 -143 173v348h76v-326q0 -66 21 -97q20 -32 69 -32q70 0 150 87v368h76v-509zM504 716l-112 -147h-55l67 147h100zM344 716l-112 -147h-55l67 147h100z" />
    <glyph glyph-name="Uogonek" unicode="&#x172;" 
d="M417 -163q-35 -16 -73 -16q-45 0 -73 25t-28 65q0 38 33 77q-174 15 -174 227v474h80v-467q0 -165 120 -165q59 0 88 39q28 38 28 127v466h80v-472q0 -120 -48 -175q-42 -46 -122 -54q-26 -35 -26 -57q0 -62 60 -62q16 0 55 11v-43z" />
    <glyph glyph-name="uogonek" unicode="&#x173;" 
d="M550 -163q-35 -16 -73 -16q-45 0 -73 25t-28 65q0 43 44 89v75q-83 -87 -173 -87q-143 0 -143 173v348h76v-326q0 -66 21 -97q20 -32 69 -32q70 0 150 87v368h76v-509h-26q-35 -44 -35 -69q0 -62 60 -62q16 0 55 11v-43z" />
    <glyph glyph-name="Wcircumflex" unicode="&#x174;" 
d="M579 689l-88 -689h-74l-117 388l-117 -388h-76l-86 689h79l58 -560l102 339h80l102 -340l59 561h78zM455 749h-55l-97 94l-97 -94h-55l97 147h110z" />
    <glyph glyph-name="wcircumflex" unicode="&#x175;" 
d="M557 509l-73 -509h-58l-120 288l-120 -288h-58l-72 509h76q40 -355 42 -374l93 221h78l93 -220l41 373h78zM457 569h-55l-97 94l-97 -94h-55l97 147h110z" />
    <glyph glyph-name="Ycircumflex" unicode="&#x176;" 
d="M556 689l-215 -394v-295h-80v295l-215 394h90l165 -310l165 310h90zM450 749h-55l-97 94l-97 -94h-55l97 147h110z" />
    <glyph glyph-name="ycircumflex" unicode="&#x177;" 
d="M520 509l-193 -509q-41 -111 -83 -157q-41 -44 -94 -44q-45 0 -93 17l13 61q37 -12 66 -12q41 0 68 32q26 32 53 104l-191 508h83l144 -406l144 406h83zM433 569h-55l-97 94l-97 -94h-55l97 147h110z" />
    <glyph glyph-name="Ydieresis" unicode="&#x178;" 
d="M347 805q0 22 15 37.5t37 15.5t37.5 -15.5t15.5 -37.5t-15.5 -37t-37.5 -15t-37 15t-15 37zM556 689l-215 -394v-295h-80v295l-215 394h90l165 -310l165 310h90zM155 805q0 22 15 37.5t37 15.5t37.5 -15.5t15.5 -37.5t-15.5 -37t-37.5 -15t-37 15t-15 37z" />
    <glyph glyph-name="Zacute" unicode="&#x179;" 
d="M508 632l-328 -562h322v-70h-413v56l326 563h-312v70h405v-57zM452 896l-152 -147h-55l97 147h110z" />
    <glyph glyph-name="zacute" unicode="&#x17a;" 
d="M490 0h-391v41l290 401h-283v67h384v-38l-290 -404h290v-67zM442 716l-152 -147h-55l97 147h110z" />
    <glyph glyph-name="Zdotaccent" unicode="&#x17b;" 
d="M508 632l-328 -562h322v-70h-413v56l326 563h-312v70h405v-57zM254 807q0 22 15 37.5t37 15.5t37.5 -15.5t15.5 -37.5t-15.5 -37t-37.5 -15t-37 15t-15 37z" />
    <glyph glyph-name="zdotaccent" unicode="&#x17c;" 
d="M490 0h-391v41l290 401h-283v67h384v-38l-290 -404h290v-67zM235 625q0 22 15 37.5t37 15.5t37.5 -15.5t15.5 -37.5t-15.5 -37t-37.5 -15t-37 15t-15 37z" />
    <glyph glyph-name="Zcaron" unicode="&#x17d;" 
d="M508 632l-328 -562h322v-70h-413v56l326 563h-312v70h405v-57zM473 896l-97 -147h-110l-97 147h55l97 -94l97 94h55z" />
    <glyph glyph-name="zcaron" unicode="&#x17e;" 
d="M490 0h-391v41l290 401h-283v67h384v-38l-290 -404h290v-67zM457 716l-97 -147h-110l-97 147h55l97 -94l97 94h55z" />
    <glyph glyph-name="florin" unicode="&#x192;" 
d="M543 627q-33 10 -60 10q-35 0 -54 -18q-21 -20 -42 -110h115v-61h-128l-87 -392q-23 -102 -62 -147q-40 -46 -105 -46q-31 0 -80 15l21 64q33 -11 57 -11q35 0 56 24q11 13 20 37.5t17 62.5l86 393h-86v61h99q24 112 65 153q40 40 106 40q37 0 77 -14z" />
    <glyph glyph-name="AEacute" unicode="&#x1fc;" 
d="M577 0h-286v246h-127l-76 -246h-82l220 689h348v-70h-203v-213h192v-70h-192v-266h206v-70zM291 316v300h-11l-93 -300h104zM485 896l-152 -147h-55l97 147h110z" />
    <glyph glyph-name="aeacute" unicode="&#x1fd;" 
d="M579 17q-63 -30 -126 -30q-101 0 -151 86q-65 -86 -151 -86q-56 0 -92 39q-37 38 -37 105q0 69 53 113q52 43 189 55v25q0 69 -22 100t-77 31q-40 0 -103 -28l-20 58q73 36 147 36q91 0 125 -58q43 58 114 58q70 0 110 -61t40 -179v-29h-238v-9q0 -91 29 -141
q28 -49 84 -49q55 0 115 25zM493 314q0 66 -17 105q-16 37 -48 37q-39 0 -62 -38t-26 -104h153zM264 243q-78 -4 -120 -34q-42 -29 -42 -73q0 -33 21 -54q21 -22 51 -22q34 0 63 26q27 25 27 39v118zM445 716l-152 -147h-55l97 147h110z" />
    <glyph glyph-name="Oslashacute" unicode="&#x1fe;" 
d="M457 635q79 -91 79 -291q0 -174 -60 -265q-62 -92 -177 -92q-61 0 -108 26l-30 -70h-66l47 110q-80 91 -80 291q0 176 61 267q60 91 176 91q61 0 108 -27l32 75h67zM377 605q-33 27 -78 27q-74 0 -113 -74q-39 -75 -39 -214q0 -127 33 -202zM221 84q33 -27 78 -27
q152 0 152 287q0 130 -32 202zM445 896l-152 -147h-55l97 147h110z" />
    <glyph glyph-name="oslashacute" unicode="&#x1ff;" 
d="M435 478q94 -73 94 -223q0 -120 -62 -194t-167 -74q-36 0 -72 10l-30 -70h-66l41 96q-102 72 -102 232q0 119 62 193q61 73 167 73q43 0 81 -13l31 72h67zM354 445q-26 10 -54 10q-71 0 -110 -56t-39 -145q0 -101 53 -160zM255 60q21 -7 45 -7q68 0 109 59q40 58 40 142
q0 93 -45 152zM445 716l-152 -147h-55l97 147h110z" />
    <glyph glyph-name="Scommaaccent" unicode="&#x218;" 
d="M447 613q-62 21 -117 21q-63 0 -101 -28q-40 -28 -40 -82q0 -64 103 -110q38 -17 63 -29t38 -19q24 -13 50 -38q26 -24 41 -56q8 -17 11.5 -35.5t3.5 -38.5q0 -100 -67 -155q-68 -56 -160 -56q-88 0 -156 35l17 69q78 -36 137 -36q68 0 110 36q41 35 41 97q0 46 -27 78
q-28 32 -99 65q-37 17 -61 28.5t-35 18.5q-22 12 -43 34q-21 21 -33 50q-5 14 -8.5 28.5t-3.5 30.5q0 85 62 133q61 48 155 48q69 0 137 -21zM272 -130q-21 3 -32 14q-13 15 -13 28q0 17 12 29q14 11 31 11q23 0 35 -15q15 -15 15 -36q0 -65 -79 -102l-14 24q45 19 45 47z
" />
    <glyph glyph-name="scommaaccent" unicode="&#x219;" 
d="M444 436q-65 21 -121 21q-61 0 -98 -20q-36 -21 -36 -56q0 -21 17 -38q18 -18 66 -31l73 -21q25 -7 45.5 -15.5t36.5 -18.5q30 -19 47 -48q16 -28 16 -65q0 -73 -61 -115q-62 -42 -155 -42q-95 0 -155 28l15 66q64 -30 137 -30q62 0 103 24q40 22 40 62q0 28 -19 48
q-21 20 -94 43q-29 9 -50.5 15.5t-35.5 11.5q-28 9 -52 27q-22 15 -36 42q-13 26 -13 54q0 66 58 105q58 38 152 38q62 0 137 -21zM277 -130q-21 3 -32 14q-13 15 -13 28q0 17 12 29q14 11 31 11q23 0 35 -15q15 -15 15 -36q0 -65 -79 -102l-14 24q45 19 45 47z" />
    <glyph glyph-name="uni021A" unicode="&#x21a;" 
d="M553 624h-212v-624h-80v624h-213v65h505v-65zM299 -130q-21 3 -32 14q-13 15 -13 28q0 17 12 29q14 11 31 11q23 0 35 -15q15 -15 15 -36q0 -65 -79 -102l-14 24q45 19 45 47z" />
    <glyph glyph-name="uni021B" unicode="&#x21b;" 
d="M502 23q-78 -35 -151 -35q-136 0 -136 144v311h-98v66h98v139h74v-139h173v-66h-173v-291q0 -47 21 -72q20 -26 55 -26q64 0 124 28zM293 -130q-21 3 -32 14q-13 15 -13 28q0 17 12 29q14 11 31 11q23 0 35 -15q15 -15 15 -36q0 -65 -79 -102l-14 24q45 19 45 47z" />
    <glyph glyph-name="circumflex" unicode="&#x2c6;" 
d="M455 569h-55l-97 94l-97 -94h-55l97 147h110z" />
    <glyph glyph-name="caron" unicode="&#x2c7;" 
d="M452 716l-97 -147h-110l-97 147h55l97 -94l97 94h55z" />
    <glyph glyph-name="uni02C9" unicode="&#x2c9;" 
d="M466 596h-331v63h331v-63z" />
    <glyph glyph-name="breve" unicode="&#x2d8;" 
d="M439 698q-12 -63 -48 -96q-38 -33 -92 -33q-118 0 -143 129h67q14 -62 77 -62q57 0 71 62h68z" />
    <glyph glyph-name="dotaccent" unicode="&#x2d9;" 
d="M300 679q23 0 38 -15q14 -16 14 -38t-15 -37q-15 -16 -37 -16q-21 0 -37 16t-16 37q0 23 16 38q15 15 37 15z" />
    <glyph glyph-name="ring" unicode="&#x2da;" 
d="M300 756q39 0 66 -27t27 -66q0 -38 -27 -65q-28 -28 -66 -28q-37 0 -65 28t-28 65q0 38 28 66q27 27 65 27zM300 608q22 0 39 17q16 16 16 38q0 23 -16 39t-39 16q-22 0 -38 -16q-17 -17 -17 -39q0 -23 16 -39t39 -16z" />
    <glyph glyph-name="ogonek" unicode="&#x2db;" 
d="M395 -163q-35 -16 -73 -16q-45 0 -73 25t-28 65q0 43 44 89h50q-35 -44 -35 -69q0 -62 60 -62q16 0 55 11v-43z" />
    <glyph glyph-name="tilde" unicode="&#x2dc;" 
d="M483 690q-16 -112 -94 -112q-28 0 -85 28q-51 23 -69 23q-19 0 -33 -14q-14 -15 -18 -37h-41q16 112 94 112q28 0 85 -28q51 -23 69 -23q19 0 33 15q13 13 18 36h41z" />
    <glyph glyph-name="hungarumlaut" unicode="&#x2dd;" 
d="M465 716l-112 -147h-55l67 147h100zM305 716l-112 -147h-55l67 147h100z" />
    <glyph glyph-name="Omega" unicode="&#x3a9;" 
d="M178 65q-46 31 -81 113q-35 81 -35 177q0 158 63 253q61 94 174 94q109 0 174 -93q63 -93 63 -254q0 -95 -35 -176q-34 -80 -80 -114h102v-65h-186v64q53 23 86 104q33 79 33 187q0 135 -41 208q-41 74 -116 74q-74 0 -115 -74q-42 -74 -42 -208q0 -104 36 -186
q34 -82 89 -105v-64h-192v65h103z" />
    <glyph glyph-name="mu" unicode="&#x3bc;" 
d="M496 0h-76v75q-83 -87 -173 -87q-40 0 -67 13v-166h-76v674h76v-326q0 -66 21 -97q20 -32 69 -32q70 0 150 87v368h76v-509z" />
    <glyph glyph-name="pi" unicode="&#x3c0;" 
d="M472 433v-433h-76v433h-196v-433h-76v433h-21q-31 0 -76 -12v78q40 10 70 10h458v-76h-83z" />
    <glyph glyph-name="Wgrave" unicode="&#x1e80;" 
d="M579 689l-88 -689h-74l-117 388l-117 -388h-76l-86 689h79l58 -560l102 339h80l102 -340l59 561h78zM353 749h-55l-152 147h110z" />
    <glyph glyph-name="wgrave" unicode="&#x1e81;" 
d="M557 509l-73 -509h-58l-120 288l-120 -288h-58l-72 509h76q40 -355 42 -374l93 221h78l93 -220l41 373h78zM349 569h-55l-152 147h110z" />
    <glyph glyph-name="Wacute" unicode="&#x1e82;" 
d="M579 689l-88 -689h-74l-117 388l-117 -388h-76l-86 689h79l58 -560l102 339h80l102 -340l59 561h78zM444 896l-152 -147h-55l97 147h110z" />
    <glyph glyph-name="wacute" unicode="&#x1e83;" 
d="M557 509l-73 -509h-58l-120 288l-120 -288h-58l-72 509h76q40 -355 42 -374l93 221h78l93 -220l41 373h78zM444 716l-152 -147h-55l97 147h110z" />
    <glyph glyph-name="Wdieresis" unicode="&#x1e84;" 
d="M579 689l-88 -689h-74l-117 388l-117 -388h-76l-86 689h79l58 -560l102 339h80l102 -340l59 561h78zM353 807q0 22 15 37.5t37 15.5t37.5 -15.5t15.5 -37.5t-15.5 -37t-37.5 -15t-37 15t-15 37zM159 807q0 22 15 37.5t37 15.5t37.5 -15.5t15.5 -37.5t-15.5 -37t-37.5 -15
t-37 15t-15 37z" />
    <glyph glyph-name="wdieresis" unicode="&#x1e85;" 
d="M557 509l-73 -509h-58l-120 288l-120 -288h-58l-72 509h76q40 -355 42 -374l93 221h78l93 -220l41 373h78zM351 625q0 22 15 37.5t37 15.5t37.5 -15.5t15.5 -37.5t-15.5 -37t-37.5 -15t-37 15t-15 37zM158 625q0 22 15 37.5t37 15.5t37.5 -15.5t15.5 -37.5t-15.5 -37
t-37.5 -15t-37 15t-15 37z" />
    <glyph glyph-name="Ygrave" unicode="&#x1ef2;" 
d="M556 689l-215 -394v-295h-80v295l-215 394h90l165 -310l165 310h90zM350 749h-55l-152 147h110z" />
    <glyph glyph-name="ygrave" unicode="&#x1ef3;" 
d="M520 509l-193 -509q-41 -111 -83 -157q-41 -44 -94 -44q-45 0 -93 17l13 61q37 -12 66 -12q41 0 68 32q26 32 53 104l-191 508h83l144 -406l144 406h83zM353 569h-55l-152 147h110z" />
    <glyph glyph-name="endash" unicode="&#x2013;" 
d="M490 238h-400v74h400v-74z" />
    <glyph glyph-name="emdash" unicode="&#x2014;" 
d="M601 238h-602v74h602v-74z" />
    <glyph glyph-name="quoteleft" unicode="&#x2018;" 
d="M359 668q-60 -29 -60 -69q26 -3 43 -20q16 -17 16 -42q0 -26 -16 -42q-17 -17 -41 -17q-28 0 -47 22q-20 23 -20 54q0 95 106 149z" />
    <glyph glyph-name="quoteright" unicode="&#x2019;" 
d="M293 581q-26 3 -42 21q-17 19 -17 41q0 25 17 42t40 17q28 0 47 -22q20 -23 20 -54q0 -95 -106 -149l-19 35q60 30 60 69z" />
    <glyph glyph-name="quotesinglbase" unicode="&#x201a;" 
d="M301 -13q-26 3 -42 21q-17 19 -17 41q0 26 16 42q17 17 41 17q28 0 47 -22q20 -23 20 -54q0 -95 -106 -149l-19 35q60 28 60 69z" />
    <glyph glyph-name="quotedblleft" unicode="&#x201c;" 
d="M447 668q-60 -29 -60 -69q26 -3 43 -20q16 -17 16 -42q0 -26 -16 -42q-17 -17 -41 -17q-28 0 -47 22q-20 23 -20 54q0 95 106 149zM268 668q-60 -29 -60 -69q26 -3 43 -20q16 -17 16 -42q0 -26 -16 -42q-17 -17 -41 -17q-28 0 -47 22q-20 23 -20 54q0 95 106 149z" />
    <glyph glyph-name="quotedblright" unicode="&#x201d;" 
d="M385 581q-26 3 -42 21q-17 19 -17 41q0 25 17 42t40 17q28 0 47 -22q20 -23 20 -54q0 -95 -106 -149l-19 35q60 30 60 69zM206 581q-26 3 -42 21q-17 19 -17 41q0 25 17 42t40 17q28 0 47 -22q20 -23 20 -54q0 -95 -106 -149l-19 35q60 30 60 69z" />
    <glyph glyph-name="quotedblbase" unicode="&#x201e;" 
d="M385 -13q-26 3 -42 21q-17 19 -17 41q0 26 16 42q17 17 41 17q28 0 47 -22q20 -23 20 -54q0 -95 -106 -149l-19 35q60 28 60 69zM206 -13q-26 3 -42 21q-17 19 -17 41q0 25 17 42t40 17q28 0 47 -22q20 -23 20 -54q0 -95 -106 -149l-19 35q60 28 60 69z" />
    <glyph glyph-name="dagger" unicode="&#x2020;" 
d="M492 400h-65l-92 18v-589h-71v589l-92 -18h-65v85h65l89 -18l-4 126v96h85v-96l-4 -126l89 18h65v-85z" />
    <glyph glyph-name="daggerdbl" unicode="&#x2021;" 
d="M492 36h-65l-89 18l4 -129v-96h-85v96l4 129l-89 -18h-65v85h65l92 -18v312l-92 -18h-65v85h65l89 -15l-4 126v96h85v-96l-4 -126l89 15h65v-85h-65l-92 18v-312l92 18h65v-85z" />
    <glyph glyph-name="bullet" unicode="&#x2022;" 
d="M299 465q52 0 88 -36t36 -88q0 -51 -36 -87q-37 -37 -88 -37q-50 0 -87 37t-37 87q0 51 37 88q36 36 87 36z" />
    <glyph glyph-name="ellipsis" unicode="&#x2026;" 
d="M500 112q27 0 44 -17t17 -44t-18 -45q-18 -19 -43 -19q-24 0 -42 19q-18 20 -18 45q0 26 18 44q17 17 42 17zM301 112q27 0 44 -17t17 -44t-18 -45q-18 -19 -43 -19q-24 0 -42 19q-18 20 -18 45t17 44q17 17 43 17zM99 112q27 0 44 -17t17 -44q0 -26 -17 -45
q-18 -19 -44 -19q-24 0 -42 19q-18 20 -18 45q0 26 18 44q17 17 42 17z" />
    <glyph glyph-name="perthousand" unicode="&#x2030;" 
d="M123 702q59 0 91 -39q32 -40 32 -109t-32 -109q-32 -39 -91 -39q-60 0 -91 39q-32 40 -32 109q0 68 31 108t92 40zM123 465q53 0 53 89t-53 89t-53 -89t53 -89zM516 453l-516 -203v65l516 205v-67zM477 283q59 0 91 -39q32 -40 32 -109t-32 -109q-32 -39 -91 -39
q-60 0 -91 39q-32 40 -32 109t32 109q31 39 91 39zM477 46q53 0 53 89t-53 89t-53 -89t53 -89zM209 283q59 0 91 -39q32 -40 32 -109q0 -67 -30 -107q-32 -41 -93 -41q-60 0 -91 39q-32 40 -32 109t32 109q31 39 91 39zM209 46q53 0 53 89t-53 89t-53 -89t53 -89z" />
    <glyph glyph-name="guilsinglleft" unicode="&#x2039;" 
d="M417 68l-45 -39l-186 216v59l186 215l45 -39l-175 -206z" />
    <glyph glyph-name="guilsinglright" unicode="&#x203a;" 
d="M414 245l-186 -216l-45 39l175 206l-175 206l45 39l186 -215v-59z" />
    <glyph glyph-name="fraction" unicode="&#x2044;" 
d="M172 0h-57l313 689h58z" />
    <glyph glyph-name="Euro" unicode="&#x20ac;" 
d="M523 43q-82 -56 -188 -56q-229 0 -266 259h-69l35 64h28q-1 5 -1 13.5v20.5v21.5t1 14.5h-63l35 64h34q39 258 266 258q51 0 99 -13q48 -12 78 -33l-26 -63q-69 39 -151 39q-156 0 -182 -188h343l-35 -64h-313q-1 -6 -1 -14.5v-21.5v-20.5t1 -13.5h319l-35 -64h-278
q28 -189 181 -189q80 0 163 49l25 -63v0z" />
    <glyph glyph-name="afii61289" unicode="&#x2113;" 
d="M462 54q-10 -10 -24 -22t-32 -22t-39.5 -17t-45.5 -7q-30 0 -51.5 9t-37.5 26q-19 20 -28 51.5t-9 67.5v105q-16 -16 -31 -32l-30 -32l-33 42q23 25 47 49.5t47 49.5v224q0 89 34.5 135.5t94.5 46.5q29 0 48.5 -10.5t31.5 -26.5t17 -35.5t5 -36.5q0 -71 -32.5 -134
t-82.5 -126q-8 -10 -18.5 -22.5t-18.5 -20.5v-173q0 -50 18.5 -71.5t47.5 -21.5t52.5 17t38.5 34q8 -12 15.5 -23.5t15.5 -23.5zM367 608q0 23 -9.5 39.5t-29.5 16.5q-26 0 -40 -26.5t-14 -84.5v-156q5 6 12 15t12 16q32 45 50.5 92.5t18.5 87.5z" />
    <glyph glyph-name="trademark" unicode="&#x2122;" 
d="M566 326h-64v268l-67 -151h-46l-64 151v-268h-59v363h71l75 -178l79 178h75v-363zM238 636h-84v-310h-62v310h-84v53h230v-53z" />
    <glyph glyph-name="uni2126" unicode="&#x2126;" 
d="M178 65q-46 31 -81 113q-35 81 -35 177q0 158 63 253q61 94 174 94q109 0 174 -93q63 -93 63 -254q0 -95 -35 -176q-34 -80 -80 -114h102v-65h-186v64q53 23 86 104q33 79 33 187q0 135 -41 208q-41 74 -116 74q-74 0 -115 -74q-42 -74 -42 -208q0 -104 36 -186
q34 -82 89 -105v-64h-192v65h103z" />
    <glyph glyph-name="estimated" unicode="&#x212e;" 
d="M130 305v-210q69 -69 167 -69q82 0 135 38.5t91 100.5q9 -5 18 -11t19 -11q-23 -35 -48.5 -63.5t-57 -49t-70 -31.5t-87.5 -11q-68 0 -123 25t-93.5 68.5t-59.5 101t-21 123.5t20.5 123.5t59 100.5t94 68t125.5 25t125.5 -25t94 -68.5t59 -101t22.5 -123.5h-470zM466 516
q-32 32 -76 50.5t-92 18.5q-50 0 -92.5 -17t-75.5 -51v-173h336v172z" />
    <glyph glyph-name="onethird" unicode="&#x2153;" 
d="M28 341v53h73v228l-69 -34v60l83 41h48v-295h68v-53h-203zM172 0h-57l313 689h58zM506 185q32 -5 53 -27q22 -22 22 -52q0 -47 -39 -80q-38 -32 -91 -32q-45 0 -85 24l13 50q42 -20 74 -20q28 0 45 16q19 15 19 39q0 23 -21 40q-20 15 -54 15h-22v50h14q34 0 55 14
q21 13 21 38q0 39 -55 39q-24 0 -69 -17l-8 52q42 18 79 18q50 0 84 -26q33 -26 33 -65q0 -27 -19 -47t-49 -28v-1z" />
    <glyph glyph-name="twothirds" unicode="&#x2154;" 
d="M182 0h-57l313 689h58zM506 185q32 -5 53 -27q22 -22 22 -52q0 -47 -39 -80q-38 -32 -91 -32q-45 0 -85 24l13 50q42 -20 74 -20q28 0 45 16q19 15 19 39q0 23 -21 40q-20 15 -54 15h-22v50h14q34 0 55 14q21 13 21 38q0 39 -55 39q-24 0 -69 -17l-8 52q42 18 79 18
q50 0 84 -26q33 -26 33 -65q0 -27 -19 -47t-49 -28v-1zM28 341l1 41q51 56 81.5 92t40.5 53q19 32 19 63q0 22 -15 36q-13 13 -41 13q-20 0 -74 -17l-8 52q45 18 89 18q52 0 82 -27q31 -27 31 -73q0 -27 -20 -65q-21 -38 -111 -133h136v-53h-211z" />
    <glyph glyph-name="oneeighth" unicode="&#x215b;" 
d="M28 341v53h73v228l-69 -34v60l83 41h48v-295h68v-53h-203zM172 0h-57l313 689h58zM583 95q0 -48 -36 -75q-18 -14 -38 -20.5t-52 -6.5q-21 0 -43 6.5t-40 19t-29.5 31.5t-11.5 44q0 46 62 81l15 9l-5 2q-62 28 -62 79q0 37 34 62q17 12 34.5 18t46.5 6q17 0 37 -5t37 -15
t28 -25.5t11 -36.5q0 -22 -16.5 -41.5t-54.5 -39.5l14 -7q69 -34 69 -86zM507 264q0 17 -16.5 28.5t-34.5 11.5q-16 0 -31 -10.5t-15 -29.5q0 -11 9.5 -23.5t38.5 -26.5q29 16 39 28.5t10 21.5zM513 94q0 13 -15 27.5t-47 34.5q-25 -11 -38 -29.5t-13 -32.5q0 -22 14.5 -38
t43.5 -16q25 0 40 15t15 39z" />
    <glyph glyph-name="threeeighths" unicode="&#x215c;" 
d="M169 525q32 -5 53 -27q22 -22 22 -52q0 -47 -39 -80q-38 -32 -91 -32q-45 0 -85 24l13 50q42 -20 74 -20q28 0 45 16q19 15 19 39q0 23 -21 40q-20 15 -54 15h-22v50h14q34 0 55 14q21 13 21 38q0 39 -55 39q-24 0 -69 -17l-8 52q42 18 79 18q50 0 84 -26q33 -26 33 -65
q0 -27 -19 -47t-49 -28v-1zM165 0h-57l313 689h58zM583 95q0 -48 -36 -75q-18 -14 -38 -20.5t-52 -6.5q-21 0 -43 6.5t-40 19t-29.5 31.5t-11.5 44q0 46 62 81l15 9l-5 2q-62 28 -62 79q0 37 34 62q17 12 34.5 18t46.5 6q17 0 37 -5t37 -15t28 -25.5t11 -36.5
q0 -22 -16.5 -41.5t-54.5 -39.5l14 -7q69 -34 69 -86zM507 264q0 17 -16.5 28.5t-34.5 11.5q-16 0 -31 -10.5t-15 -29.5q0 -11 9.5 -23.5t38.5 -26.5q29 16 39 28.5t10 21.5zM513 94q0 13 -15 27.5t-47 34.5q-25 -11 -38 -29.5t-13 -32.5q0 -22 14.5 -38t43.5 -16
q25 0 40 15t15 39z" />
    <glyph glyph-name="fiveeighths" unicode="&#x215d;" 
d="M165 0h-57l313 689h58zM583 95q0 -48 -36 -75q-18 -14 -38 -20.5t-52 -6.5q-21 0 -43 6.5t-40 19t-29.5 31.5t-11.5 44q0 46 62 81l15 9l-5 2q-62 28 -62 79q0 37 34 62q17 12 34.5 18t46.5 6q17 0 37 -5t37 -15t28 -25.5t11 -36.5q0 -22 -16.5 -41.5t-54.5 -39.5l14 -7
q69 -34 69 -86zM507 264q0 17 -16.5 28.5t-34.5 11.5q-16 0 -31 -10.5t-15 -29.5q0 -11 9.5 -23.5t38.5 -26.5q29 16 39 28.5t10 21.5zM513 94q0 13 -15 27.5t-47 34.5q-25 -11 -38 -29.5t-13 -32.5q0 -22 14.5 -38t43.5 -16q25 0 40 15t15 39zM260 453q0 -27 -11 -49
t-29.5 -38t-42.5 -24.5t-51 -8.5q-36 0 -56.5 6t-42.5 17l14 49q21 -13 40.5 -19t45.5 -6q32 0 49 21t17 53q0 10 -3 21t-9.5 21t-17 16.5t-26.5 6.5q-27 0 -51 -9l-45 14l27 160h183v-47h-136l-13 -74q16 3 38 3q23 0 44.5 -8t38.5 -23t27 -36t10 -46z" />
    <glyph glyph-name="seveneighths" unicode="&#x215e;" 
d="M152 0h-57l313 689h58zM583 95q0 -48 -36 -75q-18 -14 -38 -20.5t-52 -6.5q-21 0 -43 6.5t-40 19t-29.5 31.5t-11.5 44q0 46 62 81l15 9l-5 2q-62 28 -62 79q0 37 34 62q17 12 34.5 18t46.5 6q17 0 37 -5t37 -15t28 -25.5t11 -36.5q0 -22 -16.5 -41.5t-54.5 -39.5l14 -7
q69 -34 69 -86zM507 264q0 17 -16.5 28.5t-34.5 11.5q-16 0 -31 -10.5t-15 -29.5q0 -11 9.5 -23.5t38.5 -26.5q29 16 39 28.5t10 21.5zM513 94q0 13 -15 27.5t-47 34.5q-25 -11 -38 -29.5t-13 -32.5q0 -22 14.5 -38t43.5 -16q25 0 40 15t15 39zM290 649l-124 -304h-71
l135 297h-184v47h245z" />
    <glyph glyph-name="partialdiff" unicode="&#x2202;" 
d="M213 706q18 11 57 22q36 9 62 9q98 0 154 -66q56 -68 56 -185q0 -204 -90 -351t-226 -147q-81 0 -127 54q-47 53 -47 142q0 136 82 234q81 98 196 98q34 0 69 -14q18 -7 33.5 -18.5t29.5 -26.5v19q0 92 -33 145q-34 52 -93 52q-46 0 -103 -26zM452 376q-26 35 -64 54
q-40 20 -72 20q-85 0 -134 -79q-50 -80 -50 -185q0 -61 28 -95t81 -34q72 0 128 86t83 233z" />
    <glyph glyph-name="uni2206" unicode="&#x2206;" 
d="M574 0h-546l225 689h96zM469 65l-168 539l-169 -539h337z" />
    <glyph glyph-name="product" unicode="&#x220f;" 
d="M527 -137h-80v756h-294v-756h-80v826h454v-826z" />
    <glyph glyph-name="summation" unicode="&#x2211;" 
d="M558 -138h-504v70l241 355l-229 340v62h473v-70h-377l223 -332l-234 -345h407v-80z" />
    <glyph glyph-name="minus" unicode="&#x2212;" 
d="M532 321h-463v64h463v-64z" />
    <glyph glyph-name="uni2215" unicode="&#x2215;" 
d="M172 0h-57l313 689h58z" />
    <glyph glyph-name="uni2219" unicode="&#x2219;" 
d="M297 392q27 0 44 -17t17 -44q0 -26 -18 -45t-43 -19q-26 0 -42 19q-18 19 -18 45q0 25 17 44q17 17 43 17z" />
    <glyph glyph-name="radical" unicode="&#x221a;" 
d="M604 718h-75l-211 -850h-84l-102 315l-97 -35l-20 62l161 56l97 -309l204 825h127v-64z" />
    <glyph glyph-name="infinity" unicode="&#x221e;" 
d="M289 408q22 34 41 56.5t35 34.5q32 23 66 23q63 0 103 -46t40 -122q0 -78 -40 -121q-41 -45 -102 -45q-37 0 -68 24q-31 23 -75 89q-66 -94 -144 -94q-52 0 -85 41q-33 40 -33 106t34 104q33 38 84 38q83 0 144 -88zM326 354q41 -59 63 -79q20 -19 43 -19q34 0 54 27
q20 26 20 72q0 48 -19 73t-55 25q-19 0 -43 -21t-63 -78zM251 354q-52 79 -101 79q-26 0 -42 -21q-17 -23 -17 -58q0 -33 17 -56q16 -22 42 -22q45 0 101 78z" />
    <glyph glyph-name="integral" unicode="&#x222b;" 
d="M472 660q-42 14 -77 14q-33 0 -45 -26q-13 -26 -13 -84v-591q0 -83 -31 -120q-32 -38 -101 -38q-42 0 -94 21l16 53q43 -15 77 -15t46 26q7 14 9.5 35t2.5 50v591q0 85 33 121q31 36 99 36q43 0 94 -20z" />
    <glyph glyph-name="approxequal" unicode="&#x2248;" 
d="M568 442q-76 -64 -146 -64q-40 0 -125 38q-87 38 -122 38q-57 0 -142 -67v70q76 64 149 64q41 0 126 -38t120 -38q58 0 140 67v-70zM568 250q-76 -64 -146 -64q-40 0 -125 38q-87 38 -122 38q-57 0 -142 -67v70q76 64 149 64q41 0 126 -38t120 -38q58 0 140 67v-70z" />
    <glyph glyph-name="notequal" unicode="&#x2260;" 
d="M531 223h-256l-98 -236h-72l98 236h-134v64h161l55 132h-216v64h243l91 219h73l-92 -219h147v-64h-174l-55 -132h229v-64z" />
    <glyph glyph-name="lessequal" unicode="&#x2264;" 
d="M476 105l-365 219v59l365 217v-70l-293 -179l293 -174v-72zM476 0h-365v64h365v-64z" />
    <glyph glyph-name="greaterequal" unicode="&#x2265;" 
d="M495 325l-365 -219v72l293 174l-293 179v70l365 -217v-59zM495 0h-365v64h365v-64z" />
    <glyph glyph-name="lozenge" unicode="&#x25ca;" 
d="M565 374l-265 -374l-265 374l265 374zM489 374l-189 262l-190 -262l190 -270z" />
    <glyph glyph-name="i.aalt" 
d="M333 701q20 0 37 -15q15 -17 15 -37q0 -23 -15 -38t-37 -15q-20 0 -35 16q-16 16 -16 37t16 37q15 15 35 15zM370 0h-76v443h-150v66h226v-509z" />
  </font>
</defs>
</svg>
